<?xml version="1.0" encoding="utf-8" standalone="no"?>
<!DOCTYPE svg PUBLIC "-//W3C//DTD SVG 1.1//EN"
  "http://www.w3.org/Graphics/SVG/1.1/DTD/svg11.dtd">
<!-- Created with matplotlib (https://matplotlib.org/) -->
<svg height="288pt" version="1.1" viewBox="0 0 720 288" width="720pt" xmlns="http://www.w3.org/2000/svg" xmlns:xlink="http://www.w3.org/1999/xlink">
 <defs>
  <style type="text/css">
*{stroke-linecap:butt;stroke-linejoin:round;}
  </style>
 </defs>
 <g id="figure_1">
  <g id="patch_1">
   <path d="M 0 288 
L 720 288 
L 720 0 
L 0 0 
z
" style="fill:#ffffff;"/>
  </g>
  <g id="axes_1">
   <g id="patch_2">
    <path d="M 90 252 
L 648 252 
L 648 34.56 
L 90 34.56 
z
" style="fill:#ffffff;"/>
   </g>
   <g id="matplotlib.axis_1">
    <g id="xtick_1">
     <g id="line2d_1">
      <defs>
       <path d="M 0 0 
L 0 3.5 
" id="m6084c91539" style="stroke:#000000;stroke-width:0.8;"/>
      </defs>
      <g>
       <use style="stroke:#000000;stroke-width:0.8;" x="110.239669" xlink:href="#m6084c91539" y="252"/>
      </g>
     </g>
     <g id="text_1">
      <!-- 0 -->
      <defs>
       <path d="M 31.78125 66.40625 
Q 24.171875 66.40625 20.328125 58.90625 
Q 16.5 51.421875 16.5 36.375 
Q 16.5 21.390625 20.328125 13.890625 
Q 24.171875 6.390625 31.78125 6.390625 
Q 39.453125 6.390625 43.28125 13.890625 
Q 47.125 21.390625 47.125 36.375 
Q 47.125 51.421875 43.28125 58.90625 
Q 39.453125 66.40625 31.78125 66.40625 
z
M 31.78125 74.21875 
Q 44.046875 74.21875 50.515625 64.515625 
Q 56.984375 54.828125 56.984375 36.375 
Q 56.984375 17.96875 50.515625 8.265625 
Q 44.046875 -1.421875 31.78125 -1.421875 
Q 19.53125 -1.421875 13.0625 8.265625 
Q 6.59375 17.96875 6.59375 36.375 
Q 6.59375 54.828125 13.0625 64.515625 
Q 19.53125 74.21875 31.78125 74.21875 
z
" id="DejaVuSans-48"/>
      </defs>
      <g transform="translate(107.058419 266.598437)scale(0.1 -0.1)">
       <use xlink:href="#DejaVuSans-48"/>
      </g>
     </g>
    </g>
    <g id="xtick_2">
     <g id="line2d_2">
      <g>
       <use style="stroke:#000000;stroke-width:0.8;" x="212.719008" xlink:href="#m6084c91539" y="252"/>
      </g>
     </g>
     <g id="text_2">
      <!-- 20 -->
      <defs>
       <path d="M 19.1875 8.296875 
L 53.609375 8.296875 
L 53.609375 0 
L 7.328125 0 
L 7.328125 8.296875 
Q 12.9375 14.109375 22.625 23.890625 
Q 32.328125 33.6875 34.8125 36.53125 
Q 39.546875 41.84375 41.421875 45.53125 
Q 43.3125 49.21875 43.3125 52.78125 
Q 43.3125 58.59375 39.234375 62.25 
Q 35.15625 65.921875 28.609375 65.921875 
Q 23.96875 65.921875 18.8125 64.3125 
Q 13.671875 62.703125 7.8125 59.421875 
L 7.8125 69.390625 
Q 13.765625 71.78125 18.9375 73 
Q 24.125 74.21875 28.421875 74.21875 
Q 39.75 74.21875 46.484375 68.546875 
Q 53.21875 62.890625 53.21875 53.421875 
Q 53.21875 48.921875 51.53125 44.890625 
Q 49.859375 40.875 45.40625 35.40625 
Q 44.1875 33.984375 37.640625 27.21875 
Q 31.109375 20.453125 19.1875 8.296875 
z
" id="DejaVuSans-50"/>
      </defs>
      <g transform="translate(206.356508 266.598437)scale(0.1 -0.1)">
       <use xlink:href="#DejaVuSans-50"/>
       <use x="63.623047" xlink:href="#DejaVuSans-48"/>
      </g>
     </g>
    </g>
    <g id="xtick_3">
     <g id="line2d_3">
      <g>
       <use style="stroke:#000000;stroke-width:0.8;" x="315.198347" xlink:href="#m6084c91539" y="252"/>
      </g>
     </g>
     <g id="text_3">
      <!-- 40 -->
      <defs>
       <path d="M 37.796875 64.3125 
L 12.890625 25.390625 
L 37.796875 25.390625 
z
M 35.203125 72.90625 
L 47.609375 72.90625 
L 47.609375 25.390625 
L 58.015625 25.390625 
L 58.015625 17.1875 
L 47.609375 17.1875 
L 47.609375 0 
L 37.796875 0 
L 37.796875 17.1875 
L 4.890625 17.1875 
L 4.890625 26.703125 
z
" id="DejaVuSans-52"/>
      </defs>
      <g transform="translate(308.835847 266.598437)scale(0.1 -0.1)">
       <use xlink:href="#DejaVuSans-52"/>
       <use x="63.623047" xlink:href="#DejaVuSans-48"/>
      </g>
     </g>
    </g>
    <g id="xtick_4">
     <g id="line2d_4">
      <g>
       <use style="stroke:#000000;stroke-width:0.8;" x="417.677686" xlink:href="#m6084c91539" y="252"/>
      </g>
     </g>
     <g id="text_4">
      <!-- 60 -->
      <defs>
       <path d="M 33.015625 40.375 
Q 26.375 40.375 22.484375 35.828125 
Q 18.609375 31.296875 18.609375 23.390625 
Q 18.609375 15.53125 22.484375 10.953125 
Q 26.375 6.390625 33.015625 6.390625 
Q 39.65625 6.390625 43.53125 10.953125 
Q 47.40625 15.53125 47.40625 23.390625 
Q 47.40625 31.296875 43.53125 35.828125 
Q 39.65625 40.375 33.015625 40.375 
z
M 52.59375 71.296875 
L 52.59375 62.3125 
Q 48.875 64.0625 45.09375 64.984375 
Q 41.3125 65.921875 37.59375 65.921875 
Q 27.828125 65.921875 22.671875 59.328125 
Q 17.53125 52.734375 16.796875 39.40625 
Q 19.671875 43.65625 24.015625 45.921875 
Q 28.375 48.1875 33.59375 48.1875 
Q 44.578125 48.1875 50.953125 41.515625 
Q 57.328125 34.859375 57.328125 23.390625 
Q 57.328125 12.15625 50.6875 5.359375 
Q 44.046875 -1.421875 33.015625 -1.421875 
Q 20.359375 -1.421875 13.671875 8.265625 
Q 6.984375 17.96875 6.984375 36.375 
Q 6.984375 53.65625 15.1875 63.9375 
Q 23.390625 74.21875 37.203125 74.21875 
Q 40.921875 74.21875 44.703125 73.484375 
Q 48.484375 72.75 52.59375 71.296875 
z
" id="DejaVuSans-54"/>
      </defs>
      <g transform="translate(411.315186 266.598437)scale(0.1 -0.1)">
       <use xlink:href="#DejaVuSans-54"/>
       <use x="63.623047" xlink:href="#DejaVuSans-48"/>
      </g>
     </g>
    </g>
    <g id="xtick_5">
     <g id="line2d_5">
      <g>
       <use style="stroke:#000000;stroke-width:0.8;" x="520.157025" xlink:href="#m6084c91539" y="252"/>
      </g>
     </g>
     <g id="text_5">
      <!-- 80 -->
      <defs>
       <path d="M 31.78125 34.625 
Q 24.75 34.625 20.71875 30.859375 
Q 16.703125 27.09375 16.703125 20.515625 
Q 16.703125 13.921875 20.71875 10.15625 
Q 24.75 6.390625 31.78125 6.390625 
Q 38.8125 6.390625 42.859375 10.171875 
Q 46.921875 13.96875 46.921875 20.515625 
Q 46.921875 27.09375 42.890625 30.859375 
Q 38.875 34.625 31.78125 34.625 
z
M 21.921875 38.8125 
Q 15.578125 40.375 12.03125 44.71875 
Q 8.5 49.078125 8.5 55.328125 
Q 8.5 64.0625 14.71875 69.140625 
Q 20.953125 74.21875 31.78125 74.21875 
Q 42.671875 74.21875 48.875 69.140625 
Q 55.078125 64.0625 55.078125 55.328125 
Q 55.078125 49.078125 51.53125 44.71875 
Q 48 40.375 41.703125 38.8125 
Q 48.828125 37.15625 52.796875 32.3125 
Q 56.78125 27.484375 56.78125 20.515625 
Q 56.78125 9.90625 50.3125 4.234375 
Q 43.84375 -1.421875 31.78125 -1.421875 
Q 19.734375 -1.421875 13.25 4.234375 
Q 6.78125 9.90625 6.78125 20.515625 
Q 6.78125 27.484375 10.78125 32.3125 
Q 14.796875 37.15625 21.921875 38.8125 
z
M 18.3125 54.390625 
Q 18.3125 48.734375 21.84375 45.5625 
Q 25.390625 42.390625 31.78125 42.390625 
Q 38.140625 42.390625 41.71875 45.5625 
Q 45.3125 48.734375 45.3125 54.390625 
Q 45.3125 60.0625 41.71875 63.234375 
Q 38.140625 66.40625 31.78125 66.40625 
Q 25.390625 66.40625 21.84375 63.234375 
Q 18.3125 60.0625 18.3125 54.390625 
z
" id="DejaVuSans-56"/>
      </defs>
      <g transform="translate(513.794525 266.598437)scale(0.1 -0.1)">
       <use xlink:href="#DejaVuSans-56"/>
       <use x="63.623047" xlink:href="#DejaVuSans-48"/>
      </g>
     </g>
    </g>
    <g id="xtick_6">
     <g id="line2d_6">
      <g>
       <use style="stroke:#000000;stroke-width:0.8;" x="622.636364" xlink:href="#m6084c91539" y="252"/>
      </g>
     </g>
     <g id="text_6">
      <!-- 100 -->
      <defs>
       <path d="M 12.40625 8.296875 
L 28.515625 8.296875 
L 28.515625 63.921875 
L 10.984375 60.40625 
L 10.984375 69.390625 
L 28.421875 72.90625 
L 38.28125 72.90625 
L 38.28125 8.296875 
L 54.390625 8.296875 
L 54.390625 0 
L 12.40625 0 
z
" id="DejaVuSans-49"/>
      </defs>
      <g transform="translate(613.092614 266.598437)scale(0.1 -0.1)">
       <use xlink:href="#DejaVuSans-49"/>
       <use x="63.623047" xlink:href="#DejaVuSans-48"/>
       <use x="127.246094" xlink:href="#DejaVuSans-48"/>
      </g>
     </g>
    </g>
    <g id="text_7">
     <!-- Epochs -->
     <defs>
      <path d="M 9.8125 72.90625 
L 55.90625 72.90625 
L 55.90625 64.59375 
L 19.671875 64.59375 
L 19.671875 43.015625 
L 54.390625 43.015625 
L 54.390625 34.71875 
L 19.671875 34.71875 
L 19.671875 8.296875 
L 56.78125 8.296875 
L 56.78125 0 
L 9.8125 0 
z
" id="DejaVuSans-69"/>
      <path d="M 18.109375 8.203125 
L 18.109375 -20.796875 
L 9.078125 -20.796875 
L 9.078125 54.6875 
L 18.109375 54.6875 
L 18.109375 46.390625 
Q 20.953125 51.265625 25.265625 53.625 
Q 29.59375 56 35.59375 56 
Q 45.5625 56 51.78125 48.09375 
Q 58.015625 40.1875 58.015625 27.296875 
Q 58.015625 14.40625 51.78125 6.484375 
Q 45.5625 -1.421875 35.59375 -1.421875 
Q 29.59375 -1.421875 25.265625 0.953125 
Q 20.953125 3.328125 18.109375 8.203125 
z
M 48.6875 27.296875 
Q 48.6875 37.203125 44.609375 42.84375 
Q 40.53125 48.484375 33.40625 48.484375 
Q 26.265625 48.484375 22.1875 42.84375 
Q 18.109375 37.203125 18.109375 27.296875 
Q 18.109375 17.390625 22.1875 11.75 
Q 26.265625 6.109375 33.40625 6.109375 
Q 40.53125 6.109375 44.609375 11.75 
Q 48.6875 17.390625 48.6875 27.296875 
z
" id="DejaVuSans-112"/>
      <path d="M 30.609375 48.390625 
Q 23.390625 48.390625 19.1875 42.75 
Q 14.984375 37.109375 14.984375 27.296875 
Q 14.984375 17.484375 19.15625 11.84375 
Q 23.34375 6.203125 30.609375 6.203125 
Q 37.796875 6.203125 41.984375 11.859375 
Q 46.1875 17.53125 46.1875 27.296875 
Q 46.1875 37.015625 41.984375 42.703125 
Q 37.796875 48.390625 30.609375 48.390625 
z
M 30.609375 56 
Q 42.328125 56 49.015625 48.375 
Q 55.71875 40.765625 55.71875 27.296875 
Q 55.71875 13.875 49.015625 6.21875 
Q 42.328125 -1.421875 30.609375 -1.421875 
Q 18.84375 -1.421875 12.171875 6.21875 
Q 5.515625 13.875 5.515625 27.296875 
Q 5.515625 40.765625 12.171875 48.375 
Q 18.84375 56 30.609375 56 
z
" id="DejaVuSans-111"/>
      <path d="M 48.78125 52.59375 
L 48.78125 44.1875 
Q 44.96875 46.296875 41.140625 47.34375 
Q 37.3125 48.390625 33.40625 48.390625 
Q 24.65625 48.390625 19.8125 42.84375 
Q 14.984375 37.3125 14.984375 27.296875 
Q 14.984375 17.28125 19.8125 11.734375 
Q 24.65625 6.203125 33.40625 6.203125 
Q 37.3125 6.203125 41.140625 7.25 
Q 44.96875 8.296875 48.78125 10.40625 
L 48.78125 2.09375 
Q 45.015625 0.34375 40.984375 -0.53125 
Q 36.96875 -1.421875 32.421875 -1.421875 
Q 20.0625 -1.421875 12.78125 6.34375 
Q 5.515625 14.109375 5.515625 27.296875 
Q 5.515625 40.671875 12.859375 48.328125 
Q 20.21875 56 33.015625 56 
Q 37.15625 56 41.109375 55.140625 
Q 45.0625 54.296875 48.78125 52.59375 
z
" id="DejaVuSans-99"/>
      <path d="M 54.890625 33.015625 
L 54.890625 0 
L 45.90625 0 
L 45.90625 32.71875 
Q 45.90625 40.484375 42.875 44.328125 
Q 39.84375 48.1875 33.796875 48.1875 
Q 26.515625 48.1875 22.3125 43.546875 
Q 18.109375 38.921875 18.109375 30.90625 
L 18.109375 0 
L 9.078125 0 
L 9.078125 75.984375 
L 18.109375 75.984375 
L 18.109375 46.1875 
Q 21.34375 51.125 25.703125 53.5625 
Q 30.078125 56 35.796875 56 
Q 45.21875 56 50.046875 50.171875 
Q 54.890625 44.34375 54.890625 33.015625 
z
" id="DejaVuSans-104"/>
      <path d="M 44.28125 53.078125 
L 44.28125 44.578125 
Q 40.484375 46.53125 36.375 47.5 
Q 32.28125 48.484375 27.875 48.484375 
Q 21.1875 48.484375 17.84375 46.4375 
Q 14.5 44.390625 14.5 40.28125 
Q 14.5 37.15625 16.890625 35.375 
Q 19.28125 33.59375 26.515625 31.984375 
L 29.59375 31.296875 
Q 39.15625 29.25 43.1875 25.515625 
Q 47.21875 21.78125 47.21875 15.09375 
Q 47.21875 7.46875 41.1875 3.015625 
Q 35.15625 -1.421875 24.609375 -1.421875 
Q 20.21875 -1.421875 15.453125 -0.5625 
Q 10.6875 0.296875 5.421875 2 
L 5.421875 11.28125 
Q 10.40625 8.6875 15.234375 7.390625 
Q 20.0625 6.109375 24.8125 6.109375 
Q 31.15625 6.109375 34.5625 8.28125 
Q 37.984375 10.453125 37.984375 14.40625 
Q 37.984375 18.0625 35.515625 20.015625 
Q 33.0625 21.96875 24.703125 23.78125 
L 21.578125 24.515625 
Q 13.234375 26.265625 9.515625 29.90625 
Q 5.8125 33.546875 5.8125 39.890625 
Q 5.8125 47.609375 11.28125 51.796875 
Q 16.75 56 26.8125 56 
Q 31.78125 56 36.171875 55.265625 
Q 40.578125 54.546875 44.28125 53.078125 
z
" id="DejaVuSans-115"/>
     </defs>
     <g transform="translate(351.084375 280.276563)scale(0.1 -0.1)">
      <use xlink:href="#DejaVuSans-69"/>
      <use x="63.183594" xlink:href="#DejaVuSans-112"/>
      <use x="126.660156" xlink:href="#DejaVuSans-111"/>
      <use x="187.841797" xlink:href="#DejaVuSans-99"/>
      <use x="242.822266" xlink:href="#DejaVuSans-104"/>
      <use x="306.201172" xlink:href="#DejaVuSans-115"/>
     </g>
    </g>
   </g>
   <g id="matplotlib.axis_2">
    <g id="ytick_1">
     <g id="line2d_7">
      <defs>
       <path d="M 0 0 
L -3.5 0 
" id="m787e953ddb" style="stroke:#000000;stroke-width:0.8;"/>
      </defs>
      <g>
       <use style="stroke:#000000;stroke-width:0.8;" x="90" xlink:href="#m787e953ddb" y="215.760001"/>
      </g>
     </g>
     <g id="text_8">
      <!-- 0.2 -->
      <defs>
       <path d="M 10.6875 12.40625 
L 21 12.40625 
L 21 0 
L 10.6875 0 
z
" id="DejaVuSans-46"/>
      </defs>
      <g transform="translate(67.096875 219.559219)scale(0.1 -0.1)">
       <use xlink:href="#DejaVuSans-48"/>
       <use x="63.623047" xlink:href="#DejaVuSans-46"/>
       <use x="95.410156" xlink:href="#DejaVuSans-50"/>
      </g>
     </g>
    </g>
    <g id="ytick_2">
     <g id="line2d_8">
      <g>
       <use style="stroke:#000000;stroke-width:0.8;" x="90" xlink:href="#m787e953ddb" y="172.930909"/>
      </g>
     </g>
     <g id="text_9">
      <!-- 0.4 -->
      <g transform="translate(67.096875 176.730128)scale(0.1 -0.1)">
       <use xlink:href="#DejaVuSans-48"/>
       <use x="63.623047" xlink:href="#DejaVuSans-46"/>
       <use x="95.410156" xlink:href="#DejaVuSans-52"/>
      </g>
     </g>
    </g>
    <g id="ytick_3">
     <g id="line2d_9">
      <g>
       <use style="stroke:#000000;stroke-width:0.8;" x="90" xlink:href="#m787e953ddb" y="130.101818"/>
      </g>
     </g>
     <g id="text_10">
      <!-- 0.6 -->
      <g transform="translate(67.096875 133.901037)scale(0.1 -0.1)">
       <use xlink:href="#DejaVuSans-48"/>
       <use x="63.623047" xlink:href="#DejaVuSans-46"/>
       <use x="95.410156" xlink:href="#DejaVuSans-54"/>
      </g>
     </g>
    </g>
    <g id="ytick_4">
     <g id="line2d_10">
      <g>
       <use style="stroke:#000000;stroke-width:0.8;" x="90" xlink:href="#m787e953ddb" y="87.272727"/>
      </g>
     </g>
     <g id="text_11">
      <!-- 0.8 -->
      <g transform="translate(67.096875 91.071946)scale(0.1 -0.1)">
       <use xlink:href="#DejaVuSans-48"/>
       <use x="63.623047" xlink:href="#DejaVuSans-46"/>
       <use x="95.410156" xlink:href="#DejaVuSans-56"/>
      </g>
     </g>
    </g>
    <g id="ytick_5">
     <g id="line2d_11">
      <g>
       <use style="stroke:#000000;stroke-width:0.8;" x="90" xlink:href="#m787e953ddb" y="44.443636"/>
      </g>
     </g>
     <g id="text_12">
      <!-- 1.0 -->
      <g transform="translate(67.096875 48.242855)scale(0.1 -0.1)">
       <use xlink:href="#DejaVuSans-49"/>
       <use x="63.623047" xlink:href="#DejaVuSans-46"/>
       <use x="95.410156" xlink:href="#DejaVuSans-48"/>
      </g>
     </g>
    </g>
    <g id="text_13">
     <!-- Accuracy -->
     <defs>
      <path d="M 34.1875 63.1875 
L 20.796875 26.90625 
L 47.609375 26.90625 
z
M 28.609375 72.90625 
L 39.796875 72.90625 
L 67.578125 0 
L 57.328125 0 
L 50.6875 18.703125 
L 17.828125 18.703125 
L 11.1875 0 
L 0.78125 0 
z
" id="DejaVuSans-65"/>
      <path d="M 8.5 21.578125 
L 8.5 54.6875 
L 17.484375 54.6875 
L 17.484375 21.921875 
Q 17.484375 14.15625 20.5 10.265625 
Q 23.53125 6.390625 29.59375 6.390625 
Q 36.859375 6.390625 41.078125 11.03125 
Q 45.3125 15.671875 45.3125 23.6875 
L 45.3125 54.6875 
L 54.296875 54.6875 
L 54.296875 0 
L 45.3125 0 
L 45.3125 8.40625 
Q 42.046875 3.421875 37.71875 1 
Q 33.40625 -1.421875 27.6875 -1.421875 
Q 18.265625 -1.421875 13.375 4.4375 
Q 8.5 10.296875 8.5 21.578125 
z
M 31.109375 56 
z
" id="DejaVuSans-117"/>
      <path d="M 41.109375 46.296875 
Q 39.59375 47.171875 37.8125 47.578125 
Q 36.03125 48 33.890625 48 
Q 26.265625 48 22.1875 43.046875 
Q 18.109375 38.09375 18.109375 28.8125 
L 18.109375 0 
L 9.078125 0 
L 9.078125 54.6875 
L 18.109375 54.6875 
L 18.109375 46.1875 
Q 20.953125 51.171875 25.484375 53.578125 
Q 30.03125 56 36.53125 56 
Q 37.453125 56 38.578125 55.875 
Q 39.703125 55.765625 41.0625 55.515625 
z
" id="DejaVuSans-114"/>
      <path d="M 34.28125 27.484375 
Q 23.390625 27.484375 19.1875 25 
Q 14.984375 22.515625 14.984375 16.5 
Q 14.984375 11.71875 18.140625 8.90625 
Q 21.296875 6.109375 26.703125 6.109375 
Q 34.1875 6.109375 38.703125 11.40625 
Q 43.21875 16.703125 43.21875 25.484375 
L 43.21875 27.484375 
z
M 52.203125 31.203125 
L 52.203125 0 
L 43.21875 0 
L 43.21875 8.296875 
Q 40.140625 3.328125 35.546875 0.953125 
Q 30.953125 -1.421875 24.3125 -1.421875 
Q 15.921875 -1.421875 10.953125 3.296875 
Q 6 8.015625 6 15.921875 
Q 6 25.140625 12.171875 29.828125 
Q 18.359375 34.515625 30.609375 34.515625 
L 43.21875 34.515625 
L 43.21875 35.40625 
Q 43.21875 41.609375 39.140625 45 
Q 35.0625 48.390625 27.6875 48.390625 
Q 23 48.390625 18.546875 47.265625 
Q 14.109375 46.140625 10.015625 43.890625 
L 10.015625 52.203125 
Q 14.9375 54.109375 19.578125 55.046875 
Q 24.21875 56 28.609375 56 
Q 40.484375 56 46.34375 49.84375 
Q 52.203125 43.703125 52.203125 31.203125 
z
" id="DejaVuSans-97"/>
      <path d="M 32.171875 -5.078125 
Q 28.375 -14.84375 24.75 -17.8125 
Q 21.140625 -20.796875 15.09375 -20.796875 
L 7.90625 -20.796875 
L 7.90625 -13.28125 
L 13.1875 -13.28125 
Q 16.890625 -13.28125 18.9375 -11.515625 
Q 21 -9.765625 23.484375 -3.21875 
L 25.09375 0.875 
L 2.984375 54.6875 
L 12.5 54.6875 
L 29.59375 11.921875 
L 46.6875 54.6875 
L 56.203125 54.6875 
z
" id="DejaVuSans-121"/>
     </defs>
     <g transform="translate(61.017187 166.194844)rotate(-90)scale(0.1 -0.1)">
      <use xlink:href="#DejaVuSans-65"/>
      <use x="68.392578" xlink:href="#DejaVuSans-99"/>
      <use x="123.373047" xlink:href="#DejaVuSans-99"/>
      <use x="178.353516" xlink:href="#DejaVuSans-117"/>
      <use x="241.732422" xlink:href="#DejaVuSans-114"/>
      <use x="282.845703" xlink:href="#DejaVuSans-97"/>
      <use x="344.125" xlink:href="#DejaVuSans-99"/>
      <use x="399.105469" xlink:href="#DejaVuSans-121"/>
     </g>
    </g>
   </g>
   <g id="line2d_12">
    <defs>
     <path d="M 0 3 
C 0.795609 3 1.55874 2.683901 2.12132 2.12132 
C 2.683901 1.55874 3 0.795609 3 0 
C 3 -0.795609 2.683901 -1.55874 2.12132 -2.12132 
C 1.55874 -2.683901 0.795609 -3 0 -3 
C -0.795609 -3 -1.55874 -2.683901 -2.12132 -2.12132 
C -2.683901 -1.55874 -3 -0.795609 -3 0 
C -3 0.795609 -2.683901 1.55874 -2.12132 2.12132 
C -1.55874 2.683901 -0.795609 3 0 3 
z
" id="m9c5c801083" style="stroke:#0000ff;"/>
    </defs>
    <g clip-path="url(#p321f80c554)">
     <use style="fill:#0000ff;stroke:#0000ff;" x="115.363636" xlink:href="#m9c5c801083" y="233.880001"/>
     <use style="fill:#0000ff;stroke:#0000ff;" x="120.487603" xlink:href="#m9c5c801083" y="222.555001"/>
     <use style="fill:#0000ff;stroke:#0000ff;" x="125.61157" xlink:href="#m9c5c801083" y="205.052728"/>
     <use style="fill:#0000ff;stroke:#0000ff;" x="130.735537" xlink:href="#m9c5c801083" y="166.959545"/>
     <use style="fill:#0000ff;stroke:#0000ff;" x="135.859504" xlink:href="#m9c5c801083" y="147.398183"/>
     <use style="fill:#0000ff;stroke:#0000ff;" x="140.983471" xlink:href="#m9c5c801083" y="131.955"/>
     <use style="fill:#0000ff;stroke:#0000ff;" x="146.107438" xlink:href="#m9c5c801083" y="136.073181"/>
     <use style="fill:#0000ff;stroke:#0000ff;" x="151.231405" xlink:href="#m9c5c801083" y="117.541364"/>
     <use style="fill:#0000ff;stroke:#0000ff;" x="156.355372" xlink:href="#m9c5c801083" y="122.689089"/>
     <use style="fill:#0000ff;stroke:#0000ff;" x="161.479339" xlink:href="#m9c5c801083" y="106.216366"/>
     <use style="fill:#0000ff;stroke:#0000ff;" x="166.603306" xlink:href="#m9c5c801083" y="106.216364"/>
     <use style="fill:#0000ff;stroke:#0000ff;" x="171.727273" xlink:href="#m9c5c801083" y="108.275453"/>
     <use style="fill:#0000ff;stroke:#0000ff;" x="176.85124" xlink:href="#m9c5c801083" y="113.423181"/>
     <use style="fill:#0000ff;stroke:#0000ff;" x="181.975207" xlink:href="#m9c5c801083" y="96.950453"/>
     <use style="fill:#0000ff;stroke:#0000ff;" x="187.099174" xlink:href="#m9c5c801083" y="83.566363"/>
     <use style="fill:#0000ff;stroke:#0000ff;" x="192.22314" xlink:href="#m9c5c801083" y="79.448182"/>
     <use style="fill:#0000ff;stroke:#0000ff;" x="197.347107" xlink:href="#m9c5c801083" y="92.832271"/>
     <use style="fill:#0000ff;stroke:#0000ff;" x="202.471074" xlink:href="#m9c5c801083" y="85.625455"/>
     <use style="fill:#0000ff;stroke:#0000ff;" x="207.595041" xlink:href="#m9c5c801083" y="83.566363"/>
     <use style="fill:#0000ff;stroke:#0000ff;" x="212.719008" xlink:href="#m9c5c801083" y="80.477725"/>
     <use style="fill:#0000ff;stroke:#0000ff;" x="217.842975" xlink:href="#m9c5c801083" y="76.359548"/>
     <use style="fill:#0000ff;stroke:#0000ff;" x="222.966942" xlink:href="#m9c5c801083" y="60.916364"/>
     <use style="fill:#0000ff;stroke:#0000ff;" x="228.090909" xlink:href="#m9c5c801083" y="67.093637"/>
     <use style="fill:#0000ff;stroke:#0000ff;" x="233.214876" xlink:href="#m9c5c801083" y="62.975453"/>
     <use style="fill:#0000ff;stroke:#0000ff;" x="238.338843" xlink:href="#m9c5c801083" y="67.093635"/>
     <use style="fill:#0000ff;stroke:#0000ff;" x="243.46281" xlink:href="#m9c5c801083" y="73.270907"/>
     <use style="fill:#0000ff;stroke:#0000ff;" x="248.586777" xlink:href="#m9c5c801083" y="66.064091"/>
     <use style="fill:#0000ff;stroke:#0000ff;" x="253.710744" xlink:href="#m9c5c801083" y="71.211818"/>
     <use style="fill:#0000ff;stroke:#0000ff;" x="258.834711" xlink:href="#m9c5c801083" y="65.034547"/>
     <use style="fill:#0000ff;stroke:#0000ff;" x="263.958678" xlink:href="#m9c5c801083" y="67.093638"/>
     <use style="fill:#0000ff;stroke:#0000ff;" x="269.082645" xlink:href="#m9c5c801083" y="59.886818"/>
     <use style="fill:#0000ff;stroke:#0000ff;" x="274.206612" xlink:href="#m9c5c801083" y="65.034545"/>
     <use style="fill:#0000ff;stroke:#0000ff;" x="279.330579" xlink:href="#m9c5c801083" y="65.034547"/>
     <use style="fill:#0000ff;stroke:#0000ff;" x="284.454545" xlink:href="#m9c5c801083" y="62.975455"/>
     <use style="fill:#0000ff;stroke:#0000ff;" x="289.578512" xlink:href="#m9c5c801083" y="51.650455"/>
     <use style="fill:#0000ff;stroke:#0000ff;" x="294.702479" xlink:href="#m9c5c801083" y="59.88682"/>
     <use style="fill:#0000ff;stroke:#0000ff;" x="299.826446" xlink:href="#m9c5c801083" y="49.591362"/>
     <use style="fill:#0000ff;stroke:#0000ff;" x="304.950413" xlink:href="#m9c5c801083" y="54.73909"/>
     <use style="fill:#0000ff;stroke:#0000ff;" x="310.07438" xlink:href="#m9c5c801083" y="61.945907"/>
     <use style="fill:#0000ff;stroke:#0000ff;" x="315.198347" xlink:href="#m9c5c801083" y="53.709547"/>
     <use style="fill:#0000ff;stroke:#0000ff;" x="320.322314" xlink:href="#m9c5c801083" y="51.650457"/>
     <use style="fill:#0000ff;stroke:#0000ff;" x="325.446281" xlink:href="#m9c5c801083" y="53.709545"/>
     <use style="fill:#0000ff;stroke:#0000ff;" x="330.570248" xlink:href="#m9c5c801083" y="60.916364"/>
     <use style="fill:#0000ff;stroke:#0000ff;" x="335.694215" xlink:href="#m9c5c801083" y="54.73909"/>
     <use style="fill:#0000ff;stroke:#0000ff;" x="340.818182" xlink:href="#m9c5c801083" y="55.768636"/>
     <use style="fill:#0000ff;stroke:#0000ff;" x="345.942149" xlink:href="#m9c5c801083" y="51.650453"/>
     <use style="fill:#0000ff;stroke:#0000ff;" x="351.066116" xlink:href="#m9c5c801083" y="53.709545"/>
     <use style="fill:#0000ff;stroke:#0000ff;" x="356.190083" xlink:href="#m9c5c801083" y="52.679998"/>
     <use style="fill:#0000ff;stroke:#0000ff;" x="361.31405" xlink:href="#m9c5c801083" y="49.591362"/>
     <use style="fill:#0000ff;stroke:#0000ff;" x="366.438017" xlink:href="#m9c5c801083" y="52.680001"/>
     <use style="fill:#0000ff;stroke:#0000ff;" x="371.561983" xlink:href="#m9c5c801083" y="51.650456"/>
     <use style="fill:#0000ff;stroke:#0000ff;" x="376.68595" xlink:href="#m9c5c801083" y="49.591362"/>
     <use style="fill:#0000ff;stroke:#0000ff;" x="381.809917" xlink:href="#m9c5c801083" y="50.62091"/>
     <use style="fill:#0000ff;stroke:#0000ff;" x="386.933884" xlink:href="#m9c5c801083" y="49.591362"/>
     <use style="fill:#0000ff;stroke:#0000ff;" x="392.057851" xlink:href="#m9c5c801083" y="47.532273"/>
     <use style="fill:#0000ff;stroke:#0000ff;" x="397.181818" xlink:href="#m9c5c801083" y="49.591362"/>
     <use style="fill:#0000ff;stroke:#0000ff;" x="402.305785" xlink:href="#m9c5c801083" y="49.591362"/>
     <use style="fill:#0000ff;stroke:#0000ff;" x="407.429752" xlink:href="#m9c5c801083" y="53.709545"/>
     <use style="fill:#0000ff;stroke:#0000ff;" x="412.553719" xlink:href="#m9c5c801083" y="49.591362"/>
     <use style="fill:#0000ff;stroke:#0000ff;" x="417.677686" xlink:href="#m9c5c801083" y="45.473181"/>
     <use style="fill:#0000ff;stroke:#0000ff;" x="422.801653" xlink:href="#m9c5c801083" y="49.591363"/>
     <use style="fill:#0000ff;stroke:#0000ff;" x="427.92562" xlink:href="#m9c5c801083" y="50.620907"/>
     <use style="fill:#0000ff;stroke:#0000ff;" x="433.049587" xlink:href="#m9c5c801083" y="50.620911"/>
     <use style="fill:#0000ff;stroke:#0000ff;" x="438.173554" xlink:href="#m9c5c801083" y="48.561818"/>
     <use style="fill:#0000ff;stroke:#0000ff;" x="443.297521" xlink:href="#m9c5c801083" y="47.532273"/>
     <use style="fill:#0000ff;stroke:#0000ff;" x="448.421488" xlink:href="#m9c5c801083" y="48.561816"/>
     <use style="fill:#0000ff;stroke:#0000ff;" x="453.545455" xlink:href="#m9c5c801083" y="49.591362"/>
     <use style="fill:#0000ff;stroke:#0000ff;" x="458.669421" xlink:href="#m9c5c801083" y="44.443636"/>
     <use style="fill:#0000ff;stroke:#0000ff;" x="463.793388" xlink:href="#m9c5c801083" y="47.532272"/>
     <use style="fill:#0000ff;stroke:#0000ff;" x="468.917355" xlink:href="#m9c5c801083" y="47.532273"/>
     <use style="fill:#0000ff;stroke:#0000ff;" x="474.041322" xlink:href="#m9c5c801083" y="44.443636"/>
     <use style="fill:#0000ff;stroke:#0000ff;" x="479.165289" xlink:href="#m9c5c801083" y="51.650453"/>
     <use style="fill:#0000ff;stroke:#0000ff;" x="484.289256" xlink:href="#m9c5c801083" y="49.591363"/>
     <use style="fill:#0000ff;stroke:#0000ff;" x="489.413223" xlink:href="#m9c5c801083" y="45.473182"/>
     <use style="fill:#0000ff;stroke:#0000ff;" x="494.53719" xlink:href="#m9c5c801083" y="46.502727"/>
     <use style="fill:#0000ff;stroke:#0000ff;" x="499.661157" xlink:href="#m9c5c801083" y="49.591363"/>
     <use style="fill:#0000ff;stroke:#0000ff;" x="504.785124" xlink:href="#m9c5c801083" y="52.679998"/>
     <use style="fill:#0000ff;stroke:#0000ff;" x="509.909091" xlink:href="#m9c5c801083" y="45.473182"/>
     <use style="fill:#0000ff;stroke:#0000ff;" x="515.033058" xlink:href="#m9c5c801083" y="47.532273"/>
     <use style="fill:#0000ff;stroke:#0000ff;" x="520.157025" xlink:href="#m9c5c801083" y="50.620907"/>
     <use style="fill:#0000ff;stroke:#0000ff;" x="525.280992" xlink:href="#m9c5c801083" y="48.561816"/>
     <use style="fill:#0000ff;stroke:#0000ff;" x="530.404959" xlink:href="#m9c5c801083" y="45.473182"/>
     <use style="fill:#0000ff;stroke:#0000ff;" x="535.528926" xlink:href="#m9c5c801083" y="48.561816"/>
     <use style="fill:#0000ff;stroke:#0000ff;" x="540.652893" xlink:href="#m9c5c801083" y="47.532272"/>
     <use style="fill:#0000ff;stroke:#0000ff;" x="545.77686" xlink:href="#m9c5c801083" y="49.591364"/>
     <use style="fill:#0000ff;stroke:#0000ff;" x="550.900826" xlink:href="#m9c5c801083" y="45.473182"/>
     <use style="fill:#0000ff;stroke:#0000ff;" x="556.024793" xlink:href="#m9c5c801083" y="44.443636"/>
     <use style="fill:#0000ff;stroke:#0000ff;" x="561.14876" xlink:href="#m9c5c801083" y="45.473182"/>
     <use style="fill:#0000ff;stroke:#0000ff;" x="566.272727" xlink:href="#m9c5c801083" y="48.561817"/>
     <use style="fill:#0000ff;stroke:#0000ff;" x="571.396694" xlink:href="#m9c5c801083" y="47.532271"/>
     <use style="fill:#0000ff;stroke:#0000ff;" x="576.520661" xlink:href="#m9c5c801083" y="47.532271"/>
     <use style="fill:#0000ff;stroke:#0000ff;" x="581.644628" xlink:href="#m9c5c801083" y="45.473182"/>
     <use style="fill:#0000ff;stroke:#0000ff;" x="586.768595" xlink:href="#m9c5c801083" y="45.473182"/>
     <use style="fill:#0000ff;stroke:#0000ff;" x="591.892562" xlink:href="#m9c5c801083" y="47.532272"/>
     <use style="fill:#0000ff;stroke:#0000ff;" x="597.016529" xlink:href="#m9c5c801083" y="46.502726"/>
     <use style="fill:#0000ff;stroke:#0000ff;" x="602.140496" xlink:href="#m9c5c801083" y="49.591362"/>
     <use style="fill:#0000ff;stroke:#0000ff;" x="607.264463" xlink:href="#m9c5c801083" y="44.443636"/>
     <use style="fill:#0000ff;stroke:#0000ff;" x="612.38843" xlink:href="#m9c5c801083" y="45.473182"/>
     <use style="fill:#0000ff;stroke:#0000ff;" x="617.512397" xlink:href="#m9c5c801083" y="44.443636"/>
     <use style="fill:#0000ff;stroke:#0000ff;" x="622.636364" xlink:href="#m9c5c801083" y="44.443636"/>
    </g>
   </g>
   <g id="line2d_13">
    <path clip-path="url(#p321f80c554)" d="M 115.363636 242.116364 
L 120.487603 221.525454 
L 125.61157 192.69818 
L 130.735537 200.934543 
L 135.859504 167.98909 
L 140.983471 196.816365 
L 146.107438 159.752727 
L 151.231405 155.634549 
L 156.355372 159.752727 
L 161.479339 143.279994 
L 166.603306 139.161822 
L 171.727273 155.634549 
L 176.85124 147.398179 
L 181.975207 147.398179 
L 187.099174 143.279994 
L 192.22314 147.398179 
L 197.347107 143.279994 
L 202.471074 143.279994 
L 207.595041 135.043638 
L 212.719008 143.279994 
L 217.842975 126.807268 
L 222.966942 130.925453 
L 228.090909 118.570911 
L 233.214876 135.043638 
L 238.338843 122.689096 
L 243.46281 126.807268 
L 248.586777 130.925453 
L 253.710744 122.689096 
L 258.834711 122.689096 
L 263.958678 122.689096 
L 269.082645 114.452727 
L 274.206612 130.925453 
L 279.330579 126.807268 
L 284.454545 122.689096 
L 289.578512 118.570911 
L 294.702479 118.570911 
L 299.826446 122.689096 
L 304.950413 122.689096 
L 310.07438 130.925453 
L 315.198347 114.452727 
L 320.322314 114.452727 
L 325.446281 122.689096 
L 330.570248 126.807268 
L 335.694215 122.689096 
L 340.818182 114.452727 
L 345.942149 122.689096 
L 351.066116 122.689096 
L 356.190083 126.807268 
L 361.31405 118.570911 
L 366.438017 126.807268 
L 371.561983 122.689096 
L 376.68595 118.570911 
L 381.809917 122.689096 
L 386.933884 118.570911 
L 392.057851 110.334542 
L 397.181818 118.570911 
L 402.305785 126.807268 
L 407.429752 118.570911 
L 412.553719 118.570911 
L 417.677686 122.689096 
L 422.801653 110.334542 
L 427.92562 114.452727 
L 433.049587 114.452727 
L 438.173554 114.452727 
L 443.297521 118.570911 
L 448.421488 122.689096 
L 453.545455 122.689096 
L 458.669421 126.807268 
L 463.793388 122.689096 
L 468.917355 118.570911 
L 474.041322 110.334542 
L 479.165289 122.689096 
L 484.289256 114.452727 
L 489.413223 114.452727 
L 494.53719 126.807268 
L 499.661157 135.043638 
L 504.785124 122.689096 
L 509.909091 126.807268 
L 515.033058 126.807268 
L 520.157025 118.570911 
L 525.280992 106.21637 
L 530.404959 118.570911 
L 535.528926 114.452727 
L 540.652893 114.452727 
L 545.77686 118.570911 
L 550.900826 122.689096 
L 556.024793 118.570911 
L 561.14876 122.689096 
L 566.272727 118.570911 
L 571.396694 114.452727 
L 576.520661 130.925453 
L 581.644628 126.807268 
L 586.768595 122.689096 
L 591.892562 130.925453 
L 597.016529 122.689096 
L 602.140496 122.689096 
L 607.264463 118.570911 
L 612.38843 114.452727 
L 617.512397 114.452727 
L 622.636364 110.334542 
" style="fill:none;stroke:#0000ff;stroke-linecap:square;stroke-width:1.5;"/>
   </g>
   <g id="patch_3">
    <path d="M 90 252 
L 90 34.56 
" style="fill:none;stroke:#000000;stroke-linecap:square;stroke-linejoin:miter;stroke-width:0.8;"/>
   </g>
   <g id="patch_4">
    <path d="M 648 252 
L 648 34.56 
" style="fill:none;stroke:#000000;stroke-linecap:square;stroke-linejoin:miter;stroke-width:0.8;"/>
   </g>
   <g id="patch_5">
    <path d="M 90 252 
L 648 252 
" style="fill:none;stroke:#000000;stroke-linecap:square;stroke-linejoin:miter;stroke-width:0.8;"/>
   </g>
   <g id="patch_6">
    <path d="M 90 34.56 
L 648 34.56 
" style="fill:none;stroke:#000000;stroke-linecap:square;stroke-linejoin:miter;stroke-width:0.8;"/>
   </g>
   <g id="text_14">
    <!-- Training and validation accuracy -->
    <defs>
     <path d="M -0.296875 72.90625 
L 61.375 72.90625 
L 61.375 64.59375 
L 35.5 64.59375 
L 35.5 0 
L 25.59375 0 
L 25.59375 64.59375 
L -0.296875 64.59375 
z
" id="DejaVuSans-84"/>
     <path d="M 9.421875 54.6875 
L 18.40625 54.6875 
L 18.40625 0 
L 9.421875 0 
z
M 9.421875 75.984375 
L 18.40625 75.984375 
L 18.40625 64.59375 
L 9.421875 64.59375 
z
" id="DejaVuSans-105"/>
     <path d="M 54.890625 33.015625 
L 54.890625 0 
L 45.90625 0 
L 45.90625 32.71875 
Q 45.90625 40.484375 42.875 44.328125 
Q 39.84375 48.1875 33.796875 48.1875 
Q 26.515625 48.1875 22.3125 43.546875 
Q 18.109375 38.921875 18.109375 30.90625 
L 18.109375 0 
L 9.078125 0 
L 9.078125 54.6875 
L 18.109375 54.6875 
L 18.109375 46.1875 
Q 21.34375 51.125 25.703125 53.5625 
Q 30.078125 56 35.796875 56 
Q 45.21875 56 50.046875 50.171875 
Q 54.890625 44.34375 54.890625 33.015625 
z
" id="DejaVuSans-110"/>
     <path d="M 45.40625 27.984375 
Q 45.40625 37.75 41.375 43.109375 
Q 37.359375 48.484375 30.078125 48.484375 
Q 22.859375 48.484375 18.828125 43.109375 
Q 14.796875 37.75 14.796875 27.984375 
Q 14.796875 18.265625 18.828125 12.890625 
Q 22.859375 7.515625 30.078125 7.515625 
Q 37.359375 7.515625 41.375 12.890625 
Q 45.40625 18.265625 45.40625 27.984375 
z
M 54.390625 6.78125 
Q 54.390625 -7.171875 48.1875 -13.984375 
Q 42 -20.796875 29.203125 -20.796875 
Q 24.46875 -20.796875 20.265625 -20.09375 
Q 16.0625 -19.390625 12.109375 -17.921875 
L 12.109375 -9.1875 
Q 16.0625 -11.328125 19.921875 -12.34375 
Q 23.78125 -13.375 27.78125 -13.375 
Q 36.625 -13.375 41.015625 -8.765625 
Q 45.40625 -4.15625 45.40625 5.171875 
L 45.40625 9.625 
Q 42.625 4.78125 38.28125 2.390625 
Q 33.9375 0 27.875 0 
Q 17.828125 0 11.671875 7.65625 
Q 5.515625 15.328125 5.515625 27.984375 
Q 5.515625 40.671875 11.671875 48.328125 
Q 17.828125 56 27.875 56 
Q 33.9375 56 38.28125 53.609375 
Q 42.625 51.21875 45.40625 46.390625 
L 45.40625 54.6875 
L 54.390625 54.6875 
z
" id="DejaVuSans-103"/>
     <path id="DejaVuSans-32"/>
     <path d="M 45.40625 46.390625 
L 45.40625 75.984375 
L 54.390625 75.984375 
L 54.390625 0 
L 45.40625 0 
L 45.40625 8.203125 
Q 42.578125 3.328125 38.25 0.953125 
Q 33.9375 -1.421875 27.875 -1.421875 
Q 17.96875 -1.421875 11.734375 6.484375 
Q 5.515625 14.40625 5.515625 27.296875 
Q 5.515625 40.1875 11.734375 48.09375 
Q 17.96875 56 27.875 56 
Q 33.9375 56 38.25 53.625 
Q 42.578125 51.265625 45.40625 46.390625 
z
M 14.796875 27.296875 
Q 14.796875 17.390625 18.875 11.75 
Q 22.953125 6.109375 30.078125 6.109375 
Q 37.203125 6.109375 41.296875 11.75 
Q 45.40625 17.390625 45.40625 27.296875 
Q 45.40625 37.203125 41.296875 42.84375 
Q 37.203125 48.484375 30.078125 48.484375 
Q 22.953125 48.484375 18.875 42.84375 
Q 14.796875 37.203125 14.796875 27.296875 
z
" id="DejaVuSans-100"/>
     <path d="M 2.984375 54.6875 
L 12.5 54.6875 
L 29.59375 8.796875 
L 46.6875 54.6875 
L 56.203125 54.6875 
L 35.6875 0 
L 23.484375 0 
z
" id="DejaVuSans-118"/>
     <path d="M 9.421875 75.984375 
L 18.40625 75.984375 
L 18.40625 0 
L 9.421875 0 
z
" id="DejaVuSans-108"/>
     <path d="M 18.3125 70.21875 
L 18.3125 54.6875 
L 36.8125 54.6875 
L 36.8125 47.703125 
L 18.3125 47.703125 
L 18.3125 18.015625 
Q 18.3125 11.328125 20.140625 9.421875 
Q 21.96875 7.515625 27.59375 7.515625 
L 36.8125 7.515625 
L 36.8125 0 
L 27.59375 0 
Q 17.1875 0 13.234375 3.875 
Q 9.28125 7.765625 9.28125 18.015625 
L 9.28125 47.703125 
L 2.6875 47.703125 
L 2.6875 54.6875 
L 9.28125 54.6875 
L 9.28125 70.21875 
z
" id="DejaVuSans-116"/>
    </defs>
    <g transform="translate(270.83625 28.56)scale(0.12 -0.12)">
     <use xlink:href="#DejaVuSans-84"/>
     <use x="60.865234" xlink:href="#DejaVuSans-114"/>
     <use x="101.978516" xlink:href="#DejaVuSans-97"/>
     <use x="163.257812" xlink:href="#DejaVuSans-105"/>
     <use x="191.041016" xlink:href="#DejaVuSans-110"/>
     <use x="254.419922" xlink:href="#DejaVuSans-105"/>
     <use x="282.203125" xlink:href="#DejaVuSans-110"/>
     <use x="345.582031" xlink:href="#DejaVuSans-103"/>
     <use x="409.058594" xlink:href="#DejaVuSans-32"/>
     <use x="440.845703" xlink:href="#DejaVuSans-97"/>
     <use x="502.125" xlink:href="#DejaVuSans-110"/>
     <use x="565.503906" xlink:href="#DejaVuSans-100"/>
     <use x="628.980469" xlink:href="#DejaVuSans-32"/>
     <use x="660.767578" xlink:href="#DejaVuSans-118"/>
     <use x="719.947266" xlink:href="#DejaVuSans-97"/>
     <use x="781.226562" xlink:href="#DejaVuSans-108"/>
     <use x="809.009766" xlink:href="#DejaVuSans-105"/>
     <use x="836.792969" xlink:href="#DejaVuSans-100"/>
     <use x="900.269531" xlink:href="#DejaVuSans-97"/>
     <use x="961.548828" xlink:href="#DejaVuSans-116"/>
     <use x="1000.757812" xlink:href="#DejaVuSans-105"/>
     <use x="1028.541016" xlink:href="#DejaVuSans-111"/>
     <use x="1089.722656" xlink:href="#DejaVuSans-110"/>
     <use x="1153.101562" xlink:href="#DejaVuSans-32"/>
     <use x="1184.888672" xlink:href="#DejaVuSans-97"/>
     <use x="1246.167969" xlink:href="#DejaVuSans-99"/>
     <use x="1301.148438" xlink:href="#DejaVuSans-99"/>
     <use x="1356.128906" xlink:href="#DejaVuSans-117"/>
     <use x="1419.507812" xlink:href="#DejaVuSans-114"/>
     <use x="1460.621094" xlink:href="#DejaVuSans-97"/>
     <use x="1521.900391" xlink:href="#DejaVuSans-99"/>
     <use x="1576.880859" xlink:href="#DejaVuSans-121"/>
    </g>
   </g>
   <g id="legend_1">
    <g id="patch_7">
     <path d="M 97 71.91625 
L 199.448438 71.91625 
Q 201.448438 71.91625 201.448438 69.91625 
L 201.448438 41.56 
Q 201.448438 39.56 199.448438 39.56 
L 97 39.56 
Q 95 39.56 95 41.56 
L 95 69.91625 
Q 95 71.91625 97 71.91625 
z
" style="fill:#ffffff;opacity:0.8;stroke:#cccccc;stroke-linejoin:miter;"/>
    </g>
    <g id="line2d_14"/>
    <g id="line2d_15">
     <g>
      <use style="fill:#0000ff;stroke:#0000ff;" x="109" xlink:href="#m9c5c801083" y="47.658437"/>
     </g>
    </g>
    <g id="text_15">
     <!-- Training acc -->
     <g transform="translate(127 51.158437)scale(0.1 -0.1)">
      <use xlink:href="#DejaVuSans-84"/>
      <use x="60.865234" xlink:href="#DejaVuSans-114"/>
      <use x="101.978516" xlink:href="#DejaVuSans-97"/>
      <use x="163.257812" xlink:href="#DejaVuSans-105"/>
      <use x="191.041016" xlink:href="#DejaVuSans-110"/>
      <use x="254.419922" xlink:href="#DejaVuSans-105"/>
      <use x="282.203125" xlink:href="#DejaVuSans-110"/>
      <use x="345.582031" xlink:href="#DejaVuSans-103"/>
      <use x="409.058594" xlink:href="#DejaVuSans-32"/>
      <use x="440.845703" xlink:href="#DejaVuSans-97"/>
      <use x="502.125" xlink:href="#DejaVuSans-99"/>
      <use x="557.105469" xlink:href="#DejaVuSans-99"/>
     </g>
    </g>
    <g id="line2d_16">
     <path d="M 99 62.336562 
L 119 62.336562 
" style="fill:none;stroke:#0000ff;stroke-linecap:square;stroke-width:1.5;"/>
    </g>
    <g id="line2d_17"/>
    <g id="text_16">
     <!-- Validation acc -->
     <defs>
      <path d="M 28.609375 0 
L 0.78125 72.90625 
L 11.078125 72.90625 
L 34.1875 11.53125 
L 57.328125 72.90625 
L 67.578125 72.90625 
L 39.796875 0 
z
" id="DejaVuSans-86"/>
     </defs>
     <g transform="translate(127 65.836562)scale(0.1 -0.1)">
      <use xlink:href="#DejaVuSans-86"/>
      <use x="68.298828" xlink:href="#DejaVuSans-97"/>
      <use x="129.578125" xlink:href="#DejaVuSans-108"/>
      <use x="157.361328" xlink:href="#DejaVuSans-105"/>
      <use x="185.144531" xlink:href="#DejaVuSans-100"/>
      <use x="248.621094" xlink:href="#DejaVuSans-97"/>
      <use x="309.900391" xlink:href="#DejaVuSans-116"/>
      <use x="349.109375" xlink:href="#DejaVuSans-105"/>
      <use x="376.892578" xlink:href="#DejaVuSans-111"/>
      <use x="438.074219" xlink:href="#DejaVuSans-110"/>
      <use x="501.453125" xlink:href="#DejaVuSans-32"/>
      <use x="533.240234" xlink:href="#DejaVuSans-97"/>
      <use x="594.519531" xlink:href="#DejaVuSans-99"/>
      <use x="649.5" xlink:href="#DejaVuSans-99"/>
     </g>
    </g>
   </g>
  </g>
 </g>
 <defs>
  <clipPath id="p321f80c554">
   <rect height="217.44" width="558" x="90" y="34.56"/>
  </clipPath>
 </defs>
</svg>
