<?xml version="1.0" encoding="utf-8" standalone="no"?>
<!DOCTYPE svg PUBLIC "-//W3C//DTD SVG 1.1//EN"
  "http://www.w3.org/Graphics/SVG/1.1/DTD/svg11.dtd">
<!-- Created with matplotlib (https://matplotlib.org/) -->
<svg height="288pt" version="1.1" viewBox="0 0 720 288" width="720pt" xmlns="http://www.w3.org/2000/svg" xmlns:xlink="http://www.w3.org/1999/xlink">
 <defs>
  <style type="text/css">
*{stroke-linecap:butt;stroke-linejoin:round;}
  </style>
 </defs>
 <g id="figure_1">
  <g id="patch_1">
   <path d="M 0 288 
L 720 288 
L 720 0 
L 0 0 
z
" style="fill:#ffffff;"/>
  </g>
  <g id="axes_1">
   <g id="patch_2">
    <path d="M 90 252 
L 648 252 
L 648 34.56 
L 90 34.56 
z
" style="fill:#ffffff;"/>
   </g>
   <g id="matplotlib.axis_1">
    <g id="xtick_1">
     <g id="line2d_1">
      <defs>
       <path d="M 0 0 
L 0 3.5 
" id="m72b7400bea" style="stroke:#000000;stroke-width:0.8;"/>
      </defs>
      <g>
       <use style="stroke:#000000;stroke-width:0.8;" x="110.239669" xlink:href="#m72b7400bea" y="252"/>
      </g>
     </g>
     <g id="text_1">
      <!-- 0 -->
      <defs>
       <path d="M 31.78125 66.40625 
Q 24.171875 66.40625 20.328125 58.90625 
Q 16.5 51.421875 16.5 36.375 
Q 16.5 21.390625 20.328125 13.890625 
Q 24.171875 6.390625 31.78125 6.390625 
Q 39.453125 6.390625 43.28125 13.890625 
Q 47.125 21.390625 47.125 36.375 
Q 47.125 51.421875 43.28125 58.90625 
Q 39.453125 66.40625 31.78125 66.40625 
z
M 31.78125 74.21875 
Q 44.046875 74.21875 50.515625 64.515625 
Q 56.984375 54.828125 56.984375 36.375 
Q 56.984375 17.96875 50.515625 8.265625 
Q 44.046875 -1.421875 31.78125 -1.421875 
Q 19.53125 -1.421875 13.0625 8.265625 
Q 6.59375 17.96875 6.59375 36.375 
Q 6.59375 54.828125 13.0625 64.515625 
Q 19.53125 74.21875 31.78125 74.21875 
z
" id="DejaVuSans-48"/>
      </defs>
      <g transform="translate(107.058419 266.598437)scale(0.1 -0.1)">
       <use xlink:href="#DejaVuSans-48"/>
      </g>
     </g>
    </g>
    <g id="xtick_2">
     <g id="line2d_2">
      <g>
       <use style="stroke:#000000;stroke-width:0.8;" x="212.719008" xlink:href="#m72b7400bea" y="252"/>
      </g>
     </g>
     <g id="text_2">
      <!-- 20 -->
      <defs>
       <path d="M 19.1875 8.296875 
L 53.609375 8.296875 
L 53.609375 0 
L 7.328125 0 
L 7.328125 8.296875 
Q 12.9375 14.109375 22.625 23.890625 
Q 32.328125 33.6875 34.8125 36.53125 
Q 39.546875 41.84375 41.421875 45.53125 
Q 43.3125 49.21875 43.3125 52.78125 
Q 43.3125 58.59375 39.234375 62.25 
Q 35.15625 65.921875 28.609375 65.921875 
Q 23.96875 65.921875 18.8125 64.3125 
Q 13.671875 62.703125 7.8125 59.421875 
L 7.8125 69.390625 
Q 13.765625 71.78125 18.9375 73 
Q 24.125 74.21875 28.421875 74.21875 
Q 39.75 74.21875 46.484375 68.546875 
Q 53.21875 62.890625 53.21875 53.421875 
Q 53.21875 48.921875 51.53125 44.890625 
Q 49.859375 40.875 45.40625 35.40625 
Q 44.1875 33.984375 37.640625 27.21875 
Q 31.109375 20.453125 19.1875 8.296875 
z
" id="DejaVuSans-50"/>
      </defs>
      <g transform="translate(206.356508 266.598437)scale(0.1 -0.1)">
       <use xlink:href="#DejaVuSans-50"/>
       <use x="63.623047" xlink:href="#DejaVuSans-48"/>
      </g>
     </g>
    </g>
    <g id="xtick_3">
     <g id="line2d_3">
      <g>
       <use style="stroke:#000000;stroke-width:0.8;" x="315.198347" xlink:href="#m72b7400bea" y="252"/>
      </g>
     </g>
     <g id="text_3">
      <!-- 40 -->
      <defs>
       <path d="M 37.796875 64.3125 
L 12.890625 25.390625 
L 37.796875 25.390625 
z
M 35.203125 72.90625 
L 47.609375 72.90625 
L 47.609375 25.390625 
L 58.015625 25.390625 
L 58.015625 17.1875 
L 47.609375 17.1875 
L 47.609375 0 
L 37.796875 0 
L 37.796875 17.1875 
L 4.890625 17.1875 
L 4.890625 26.703125 
z
" id="DejaVuSans-52"/>
      </defs>
      <g transform="translate(308.835847 266.598437)scale(0.1 -0.1)">
       <use xlink:href="#DejaVuSans-52"/>
       <use x="63.623047" xlink:href="#DejaVuSans-48"/>
      </g>
     </g>
    </g>
    <g id="xtick_4">
     <g id="line2d_4">
      <g>
       <use style="stroke:#000000;stroke-width:0.8;" x="417.677686" xlink:href="#m72b7400bea" y="252"/>
      </g>
     </g>
     <g id="text_4">
      <!-- 60 -->
      <defs>
       <path d="M 33.015625 40.375 
Q 26.375 40.375 22.484375 35.828125 
Q 18.609375 31.296875 18.609375 23.390625 
Q 18.609375 15.53125 22.484375 10.953125 
Q 26.375 6.390625 33.015625 6.390625 
Q 39.65625 6.390625 43.53125 10.953125 
Q 47.40625 15.53125 47.40625 23.390625 
Q 47.40625 31.296875 43.53125 35.828125 
Q 39.65625 40.375 33.015625 40.375 
z
M 52.59375 71.296875 
L 52.59375 62.3125 
Q 48.875 64.0625 45.09375 64.984375 
Q 41.3125 65.921875 37.59375 65.921875 
Q 27.828125 65.921875 22.671875 59.328125 
Q 17.53125 52.734375 16.796875 39.40625 
Q 19.671875 43.65625 24.015625 45.921875 
Q 28.375 48.1875 33.59375 48.1875 
Q 44.578125 48.1875 50.953125 41.515625 
Q 57.328125 34.859375 57.328125 23.390625 
Q 57.328125 12.15625 50.6875 5.359375 
Q 44.046875 -1.421875 33.015625 -1.421875 
Q 20.359375 -1.421875 13.671875 8.265625 
Q 6.984375 17.96875 6.984375 36.375 
Q 6.984375 53.65625 15.1875 63.9375 
Q 23.390625 74.21875 37.203125 74.21875 
Q 40.921875 74.21875 44.703125 73.484375 
Q 48.484375 72.75 52.59375 71.296875 
z
" id="DejaVuSans-54"/>
      </defs>
      <g transform="translate(411.315186 266.598437)scale(0.1 -0.1)">
       <use xlink:href="#DejaVuSans-54"/>
       <use x="63.623047" xlink:href="#DejaVuSans-48"/>
      </g>
     </g>
    </g>
    <g id="xtick_5">
     <g id="line2d_5">
      <g>
       <use style="stroke:#000000;stroke-width:0.8;" x="520.157025" xlink:href="#m72b7400bea" y="252"/>
      </g>
     </g>
     <g id="text_5">
      <!-- 80 -->
      <defs>
       <path d="M 31.78125 34.625 
Q 24.75 34.625 20.71875 30.859375 
Q 16.703125 27.09375 16.703125 20.515625 
Q 16.703125 13.921875 20.71875 10.15625 
Q 24.75 6.390625 31.78125 6.390625 
Q 38.8125 6.390625 42.859375 10.171875 
Q 46.921875 13.96875 46.921875 20.515625 
Q 46.921875 27.09375 42.890625 30.859375 
Q 38.875 34.625 31.78125 34.625 
z
M 21.921875 38.8125 
Q 15.578125 40.375 12.03125 44.71875 
Q 8.5 49.078125 8.5 55.328125 
Q 8.5 64.0625 14.71875 69.140625 
Q 20.953125 74.21875 31.78125 74.21875 
Q 42.671875 74.21875 48.875 69.140625 
Q 55.078125 64.0625 55.078125 55.328125 
Q 55.078125 49.078125 51.53125 44.71875 
Q 48 40.375 41.703125 38.8125 
Q 48.828125 37.15625 52.796875 32.3125 
Q 56.78125 27.484375 56.78125 20.515625 
Q 56.78125 9.90625 50.3125 4.234375 
Q 43.84375 -1.421875 31.78125 -1.421875 
Q 19.734375 -1.421875 13.25 4.234375 
Q 6.78125 9.90625 6.78125 20.515625 
Q 6.78125 27.484375 10.78125 32.3125 
Q 14.796875 37.15625 21.921875 38.8125 
z
M 18.3125 54.390625 
Q 18.3125 48.734375 21.84375 45.5625 
Q 25.390625 42.390625 31.78125 42.390625 
Q 38.140625 42.390625 41.71875 45.5625 
Q 45.3125 48.734375 45.3125 54.390625 
Q 45.3125 60.0625 41.71875 63.234375 
Q 38.140625 66.40625 31.78125 66.40625 
Q 25.390625 66.40625 21.84375 63.234375 
Q 18.3125 60.0625 18.3125 54.390625 
z
" id="DejaVuSans-56"/>
      </defs>
      <g transform="translate(513.794525 266.598437)scale(0.1 -0.1)">
       <use xlink:href="#DejaVuSans-56"/>
       <use x="63.623047" xlink:href="#DejaVuSans-48"/>
      </g>
     </g>
    </g>
    <g id="xtick_6">
     <g id="line2d_6">
      <g>
       <use style="stroke:#000000;stroke-width:0.8;" x="622.636364" xlink:href="#m72b7400bea" y="252"/>
      </g>
     </g>
     <g id="text_6">
      <!-- 100 -->
      <defs>
       <path d="M 12.40625 8.296875 
L 28.515625 8.296875 
L 28.515625 63.921875 
L 10.984375 60.40625 
L 10.984375 69.390625 
L 28.421875 72.90625 
L 38.28125 72.90625 
L 38.28125 8.296875 
L 54.390625 8.296875 
L 54.390625 0 
L 12.40625 0 
z
" id="DejaVuSans-49"/>
      </defs>
      <g transform="translate(613.092614 266.598437)scale(0.1 -0.1)">
       <use xlink:href="#DejaVuSans-49"/>
       <use x="63.623047" xlink:href="#DejaVuSans-48"/>
       <use x="127.246094" xlink:href="#DejaVuSans-48"/>
      </g>
     </g>
    </g>
    <g id="text_7">
     <!-- Epochs -->
     <defs>
      <path d="M 9.8125 72.90625 
L 55.90625 72.90625 
L 55.90625 64.59375 
L 19.671875 64.59375 
L 19.671875 43.015625 
L 54.390625 43.015625 
L 54.390625 34.71875 
L 19.671875 34.71875 
L 19.671875 8.296875 
L 56.78125 8.296875 
L 56.78125 0 
L 9.8125 0 
z
" id="DejaVuSans-69"/>
      <path d="M 18.109375 8.203125 
L 18.109375 -20.796875 
L 9.078125 -20.796875 
L 9.078125 54.6875 
L 18.109375 54.6875 
L 18.109375 46.390625 
Q 20.953125 51.265625 25.265625 53.625 
Q 29.59375 56 35.59375 56 
Q 45.5625 56 51.78125 48.09375 
Q 58.015625 40.1875 58.015625 27.296875 
Q 58.015625 14.40625 51.78125 6.484375 
Q 45.5625 -1.421875 35.59375 -1.421875 
Q 29.59375 -1.421875 25.265625 0.953125 
Q 20.953125 3.328125 18.109375 8.203125 
z
M 48.6875 27.296875 
Q 48.6875 37.203125 44.609375 42.84375 
Q 40.53125 48.484375 33.40625 48.484375 
Q 26.265625 48.484375 22.1875 42.84375 
Q 18.109375 37.203125 18.109375 27.296875 
Q 18.109375 17.390625 22.1875 11.75 
Q 26.265625 6.109375 33.40625 6.109375 
Q 40.53125 6.109375 44.609375 11.75 
Q 48.6875 17.390625 48.6875 27.296875 
z
" id="DejaVuSans-112"/>
      <path d="M 30.609375 48.390625 
Q 23.390625 48.390625 19.1875 42.75 
Q 14.984375 37.109375 14.984375 27.296875 
Q 14.984375 17.484375 19.15625 11.84375 
Q 23.34375 6.203125 30.609375 6.203125 
Q 37.796875 6.203125 41.984375 11.859375 
Q 46.1875 17.53125 46.1875 27.296875 
Q 46.1875 37.015625 41.984375 42.703125 
Q 37.796875 48.390625 30.609375 48.390625 
z
M 30.609375 56 
Q 42.328125 56 49.015625 48.375 
Q 55.71875 40.765625 55.71875 27.296875 
Q 55.71875 13.875 49.015625 6.21875 
Q 42.328125 -1.421875 30.609375 -1.421875 
Q 18.84375 -1.421875 12.171875 6.21875 
Q 5.515625 13.875 5.515625 27.296875 
Q 5.515625 40.765625 12.171875 48.375 
Q 18.84375 56 30.609375 56 
z
" id="DejaVuSans-111"/>
      <path d="M 48.78125 52.59375 
L 48.78125 44.1875 
Q 44.96875 46.296875 41.140625 47.34375 
Q 37.3125 48.390625 33.40625 48.390625 
Q 24.65625 48.390625 19.8125 42.84375 
Q 14.984375 37.3125 14.984375 27.296875 
Q 14.984375 17.28125 19.8125 11.734375 
Q 24.65625 6.203125 33.40625 6.203125 
Q 37.3125 6.203125 41.140625 7.25 
Q 44.96875 8.296875 48.78125 10.40625 
L 48.78125 2.09375 
Q 45.015625 0.34375 40.984375 -0.53125 
Q 36.96875 -1.421875 32.421875 -1.421875 
Q 20.0625 -1.421875 12.78125 6.34375 
Q 5.515625 14.109375 5.515625 27.296875 
Q 5.515625 40.671875 12.859375 48.328125 
Q 20.21875 56 33.015625 56 
Q 37.15625 56 41.109375 55.140625 
Q 45.0625 54.296875 48.78125 52.59375 
z
" id="DejaVuSans-99"/>
      <path d="M 54.890625 33.015625 
L 54.890625 0 
L 45.90625 0 
L 45.90625 32.71875 
Q 45.90625 40.484375 42.875 44.328125 
Q 39.84375 48.1875 33.796875 48.1875 
Q 26.515625 48.1875 22.3125 43.546875 
Q 18.109375 38.921875 18.109375 30.90625 
L 18.109375 0 
L 9.078125 0 
L 9.078125 75.984375 
L 18.109375 75.984375 
L 18.109375 46.1875 
Q 21.34375 51.125 25.703125 53.5625 
Q 30.078125 56 35.796875 56 
Q 45.21875 56 50.046875 50.171875 
Q 54.890625 44.34375 54.890625 33.015625 
z
" id="DejaVuSans-104"/>
      <path d="M 44.28125 53.078125 
L 44.28125 44.578125 
Q 40.484375 46.53125 36.375 47.5 
Q 32.28125 48.484375 27.875 48.484375 
Q 21.1875 48.484375 17.84375 46.4375 
Q 14.5 44.390625 14.5 40.28125 
Q 14.5 37.15625 16.890625 35.375 
Q 19.28125 33.59375 26.515625 31.984375 
L 29.59375 31.296875 
Q 39.15625 29.25 43.1875 25.515625 
Q 47.21875 21.78125 47.21875 15.09375 
Q 47.21875 7.46875 41.1875 3.015625 
Q 35.15625 -1.421875 24.609375 -1.421875 
Q 20.21875 -1.421875 15.453125 -0.5625 
Q 10.6875 0.296875 5.421875 2 
L 5.421875 11.28125 
Q 10.40625 8.6875 15.234375 7.390625 
Q 20.0625 6.109375 24.8125 6.109375 
Q 31.15625 6.109375 34.5625 8.28125 
Q 37.984375 10.453125 37.984375 14.40625 
Q 37.984375 18.0625 35.515625 20.015625 
Q 33.0625 21.96875 24.703125 23.78125 
L 21.578125 24.515625 
Q 13.234375 26.265625 9.515625 29.90625 
Q 5.8125 33.546875 5.8125 39.890625 
Q 5.8125 47.609375 11.28125 51.796875 
Q 16.75 56 26.8125 56 
Q 31.78125 56 36.171875 55.265625 
Q 40.578125 54.546875 44.28125 53.078125 
z
" id="DejaVuSans-115"/>
     </defs>
     <g transform="translate(351.084375 280.276563)scale(0.1 -0.1)">
      <use xlink:href="#DejaVuSans-69"/>
      <use x="63.183594" xlink:href="#DejaVuSans-112"/>
      <use x="126.660156" xlink:href="#DejaVuSans-111"/>
      <use x="187.841797" xlink:href="#DejaVuSans-99"/>
      <use x="242.822266" xlink:href="#DejaVuSans-104"/>
      <use x="306.201172" xlink:href="#DejaVuSans-115"/>
     </g>
    </g>
   </g>
   <g id="matplotlib.axis_2">
    <g id="ytick_1">
     <g id="line2d_7">
      <defs>
       <path d="M 0 0 
L -3.5 0 
" id="m44e9319eb9" style="stroke:#000000;stroke-width:0.8;"/>
      </defs>
      <g>
       <use style="stroke:#000000;stroke-width:0.8;" x="90" xlink:href="#m44e9319eb9" y="242.756709"/>
      </g>
     </g>
     <g id="text_8">
      <!-- 0 -->
      <g transform="translate(76.6375 246.555928)scale(0.1 -0.1)">
       <use xlink:href="#DejaVuSans-48"/>
      </g>
     </g>
    </g>
    <g id="ytick_2">
     <g id="line2d_8">
      <g>
       <use style="stroke:#000000;stroke-width:0.8;" x="90" xlink:href="#m44e9319eb9" y="195.971418"/>
      </g>
     </g>
     <g id="text_9">
      <!-- 1 -->
      <g transform="translate(76.6375 199.770637)scale(0.1 -0.1)">
       <use xlink:href="#DejaVuSans-49"/>
      </g>
     </g>
    </g>
    <g id="ytick_3">
     <g id="line2d_9">
      <g>
       <use style="stroke:#000000;stroke-width:0.8;" x="90" xlink:href="#m44e9319eb9" y="149.186127"/>
      </g>
     </g>
     <g id="text_10">
      <!-- 2 -->
      <g transform="translate(76.6375 152.985345)scale(0.1 -0.1)">
       <use xlink:href="#DejaVuSans-50"/>
      </g>
     </g>
    </g>
    <g id="ytick_4">
     <g id="line2d_10">
      <g>
       <use style="stroke:#000000;stroke-width:0.8;" x="90" xlink:href="#m44e9319eb9" y="102.400835"/>
      </g>
     </g>
     <g id="text_11">
      <!-- 3 -->
      <defs>
       <path d="M 40.578125 39.3125 
Q 47.65625 37.796875 51.625 33 
Q 55.609375 28.21875 55.609375 21.1875 
Q 55.609375 10.40625 48.1875 4.484375 
Q 40.765625 -1.421875 27.09375 -1.421875 
Q 22.515625 -1.421875 17.65625 -0.515625 
Q 12.796875 0.390625 7.625 2.203125 
L 7.625 11.71875 
Q 11.71875 9.328125 16.59375 8.109375 
Q 21.484375 6.890625 26.8125 6.890625 
Q 36.078125 6.890625 40.9375 10.546875 
Q 45.796875 14.203125 45.796875 21.1875 
Q 45.796875 27.640625 41.28125 31.265625 
Q 36.765625 34.90625 28.71875 34.90625 
L 20.21875 34.90625 
L 20.21875 43.015625 
L 29.109375 43.015625 
Q 36.375 43.015625 40.234375 45.921875 
Q 44.09375 48.828125 44.09375 54.296875 
Q 44.09375 59.90625 40.109375 62.90625 
Q 36.140625 65.921875 28.71875 65.921875 
Q 24.65625 65.921875 20.015625 65.03125 
Q 15.375 64.15625 9.8125 62.3125 
L 9.8125 71.09375 
Q 15.4375 72.65625 20.34375 73.4375 
Q 25.25 74.21875 29.59375 74.21875 
Q 40.828125 74.21875 47.359375 69.109375 
Q 53.90625 64.015625 53.90625 55.328125 
Q 53.90625 49.265625 50.4375 45.09375 
Q 46.96875 40.921875 40.578125 39.3125 
z
" id="DejaVuSans-51"/>
      </defs>
      <g transform="translate(76.6375 106.200054)scale(0.1 -0.1)">
       <use xlink:href="#DejaVuSans-51"/>
      </g>
     </g>
    </g>
    <g id="ytick_5">
     <g id="line2d_11">
      <g>
       <use style="stroke:#000000;stroke-width:0.8;" x="90" xlink:href="#m44e9319eb9" y="55.615544"/>
      </g>
     </g>
     <g id="text_12">
      <!-- 4 -->
      <g transform="translate(76.6375 59.414763)scale(0.1 -0.1)">
       <use xlink:href="#DejaVuSans-52"/>
      </g>
     </g>
    </g>
    <g id="text_13">
     <!-- Loss -->
     <defs>
      <path d="M 9.8125 72.90625 
L 19.671875 72.90625 
L 19.671875 8.296875 
L 55.171875 8.296875 
L 55.171875 0 
L 9.8125 0 
z
" id="DejaVuSans-76"/>
     </defs>
     <g transform="translate(70.557812 154.333906)rotate(-90)scale(0.1 -0.1)">
      <use xlink:href="#DejaVuSans-76"/>
      <use x="55.697266" xlink:href="#DejaVuSans-111"/>
      <use x="116.878906" xlink:href="#DejaVuSans-115"/>
      <use x="168.978516" xlink:href="#DejaVuSans-115"/>
     </g>
    </g>
   </g>
   <g id="line2d_12">
    <defs>
     <path d="M 0 3 
C 0.795609 3 1.55874 2.683901 2.12132 2.12132 
C 2.683901 1.55874 3 0.795609 3 0 
C 3 -0.795609 2.683901 -1.55874 2.12132 -2.12132 
C 1.55874 -2.683901 0.795609 -3 0 -3 
C -0.795609 -3 -1.55874 -2.683901 -2.12132 -2.12132 
C -2.683901 -1.55874 -3 -0.795609 -3 0 
C -3 0.795609 -2.683901 1.55874 -2.12132 2.12132 
C -1.55874 2.683901 -0.795609 3 0 3 
z
" id="m3da0d4573e" style="stroke:#0000ff;"/>
    </defs>
    <g clip-path="url(#p9f3581330f)">
     <use style="fill:#0000ff;stroke:#0000ff;" x="115.363636" xlink:href="#m3da0d4573e" y="44.443636"/>
     <use style="fill:#0000ff;stroke:#0000ff;" x="120.487603" xlink:href="#m3da0d4573e" y="49.703787"/>
     <use style="fill:#0000ff;stroke:#0000ff;" x="125.61157" xlink:href="#m3da0d4573e" y="136.906249"/>
     <use style="fill:#0000ff;stroke:#0000ff;" x="130.735537" xlink:href="#m3da0d4573e" y="168.298215"/>
     <use style="fill:#0000ff;stroke:#0000ff;" x="135.859504" xlink:href="#m3da0d4573e" y="179.682443"/>
     <use style="fill:#0000ff;stroke:#0000ff;" x="140.983471" xlink:href="#m3da0d4573e" y="185.969835"/>
     <use style="fill:#0000ff;stroke:#0000ff;" x="146.107438" xlink:href="#m3da0d4573e" y="185.378625"/>
     <use style="fill:#0000ff;stroke:#0000ff;" x="151.231405" xlink:href="#m3da0d4573e" y="197.054955"/>
     <use style="fill:#0000ff;stroke:#0000ff;" x="156.355372" xlink:href="#m3da0d4573e" y="196.728833"/>
     <use style="fill:#0000ff;stroke:#0000ff;" x="161.479339" xlink:href="#m3da0d4573e" y="202.155511"/>
     <use style="fill:#0000ff;stroke:#0000ff;" x="166.603306" xlink:href="#m3da0d4573e" y="207.579499"/>
     <use style="fill:#0000ff;stroke:#0000ff;" x="171.727273" xlink:href="#m3da0d4573e" y="207.929521"/>
     <use style="fill:#0000ff;stroke:#0000ff;" x="176.85124" xlink:href="#m3da0d4573e" y="203.685235"/>
     <use style="fill:#0000ff;stroke:#0000ff;" x="181.975207" xlink:href="#m3da0d4573e" y="212.190299"/>
     <use style="fill:#0000ff;stroke:#0000ff;" x="187.099174" xlink:href="#m3da0d4573e" y="217.254355"/>
     <use style="fill:#0000ff;stroke:#0000ff;" x="192.22314" xlink:href="#m3da0d4573e" y="217.363516"/>
     <use style="fill:#0000ff;stroke:#0000ff;" x="197.347107" xlink:href="#m3da0d4573e" y="216.266802"/>
     <use style="fill:#0000ff;stroke:#0000ff;" x="202.471074" xlink:href="#m3da0d4573e" y="216.888971"/>
     <use style="fill:#0000ff;stroke:#0000ff;" x="207.595041" xlink:href="#m3da0d4573e" y="221.086763"/>
     <use style="fill:#0000ff;stroke:#0000ff;" x="212.719008" xlink:href="#m3da0d4573e" y="218.591024"/>
     <use style="fill:#0000ff;stroke:#0000ff;" x="217.842975" xlink:href="#m3da0d4573e" y="222.531259"/>
     <use style="fill:#0000ff;stroke:#0000ff;" x="222.966942" xlink:href="#m3da0d4573e" y="228.619579"/>
     <use style="fill:#0000ff;stroke:#0000ff;" x="228.090909" xlink:href="#m3da0d4573e" y="224.636849"/>
     <use style="fill:#0000ff;stroke:#0000ff;" x="233.214876" xlink:href="#m3da0d4573e" y="227.177667"/>
     <use style="fill:#0000ff;stroke:#0000ff;" x="238.338843" xlink:href="#m3da0d4573e" y="229.374878"/>
     <use style="fill:#0000ff;stroke:#0000ff;" x="243.46281" xlink:href="#m3da0d4573e" y="228.303461"/>
     <use style="fill:#0000ff;stroke:#0000ff;" x="248.586777" xlink:href="#m3da0d4573e" y="228.615304"/>
     <use style="fill:#0000ff;stroke:#0000ff;" x="253.710744" xlink:href="#m3da0d4573e" y="228.245551"/>
     <use style="fill:#0000ff;stroke:#0000ff;" x="258.834711" xlink:href="#m3da0d4573e" y="229.124263"/>
     <use style="fill:#0000ff;stroke:#0000ff;" x="263.958678" xlink:href="#m3da0d4573e" y="227.99463"/>
     <use style="fill:#0000ff;stroke:#0000ff;" x="269.082645" xlink:href="#m3da0d4573e" y="231.981872"/>
     <use style="fill:#0000ff;stroke:#0000ff;" x="274.206612" xlink:href="#m3da0d4573e" y="231.198388"/>
     <use style="fill:#0000ff;stroke:#0000ff;" x="279.330579" xlink:href="#m3da0d4573e" y="227.867453"/>
     <use style="fill:#0000ff;stroke:#0000ff;" x="284.454545" xlink:href="#m3da0d4573e" y="230.362817"/>
     <use style="fill:#0000ff;stroke:#0000ff;" x="289.578512" xlink:href="#m3da0d4573e" y="235.392647"/>
     <use style="fill:#0000ff;stroke:#0000ff;" x="294.702479" xlink:href="#m3da0d4573e" y="233.867027"/>
     <use style="fill:#0000ff;stroke:#0000ff;" x="299.826446" xlink:href="#m3da0d4573e" y="237.466335"/>
     <use style="fill:#0000ff;stroke:#0000ff;" x="304.950413" xlink:href="#m3da0d4573e" y="236.225284"/>
     <use style="fill:#0000ff;stroke:#0000ff;" x="310.07438" xlink:href="#m3da0d4573e" y="232.928621"/>
     <use style="fill:#0000ff;stroke:#0000ff;" x="315.198347" xlink:href="#m3da0d4573e" y="235.886784"/>
     <use style="fill:#0000ff;stroke:#0000ff;" x="320.322314" xlink:href="#m3da0d4573e" y="237.029158"/>
     <use style="fill:#0000ff;stroke:#0000ff;" x="325.446281" xlink:href="#m3da0d4573e" y="234.629865"/>
     <use style="fill:#0000ff;stroke:#0000ff;" x="330.570248" xlink:href="#m3da0d4573e" y="233.617013"/>
     <use style="fill:#0000ff;stroke:#0000ff;" x="335.694215" xlink:href="#m3da0d4573e" y="236.735932"/>
     <use style="fill:#0000ff;stroke:#0000ff;" x="340.818182" xlink:href="#m3da0d4573e" y="235.173359"/>
     <use style="fill:#0000ff;stroke:#0000ff;" x="345.942149" xlink:href="#m3da0d4573e" y="237.864652"/>
     <use style="fill:#0000ff;stroke:#0000ff;" x="351.066116" xlink:href="#m3da0d4573e" y="236.858435"/>
     <use style="fill:#0000ff;stroke:#0000ff;" x="356.190083" xlink:href="#m3da0d4573e" y="238.192"/>
     <use style="fill:#0000ff;stroke:#0000ff;" x="361.31405" xlink:href="#m3da0d4573e" y="237.855079"/>
     <use style="fill:#0000ff;stroke:#0000ff;" x="366.438017" xlink:href="#m3da0d4573e" y="237.795674"/>
     <use style="fill:#0000ff;stroke:#0000ff;" x="371.561983" xlink:href="#m3da0d4573e" y="237.645958"/>
     <use style="fill:#0000ff;stroke:#0000ff;" x="376.68595" xlink:href="#m3da0d4573e" y="238.468645"/>
     <use style="fill:#0000ff;stroke:#0000ff;" x="381.809917" xlink:href="#m3da0d4573e" y="238.332038"/>
     <use style="fill:#0000ff;stroke:#0000ff;" x="386.933884" xlink:href="#m3da0d4573e" y="238.703009"/>
     <use style="fill:#0000ff;stroke:#0000ff;" x="392.057851" xlink:href="#m3da0d4573e" y="239.083038"/>
     <use style="fill:#0000ff;stroke:#0000ff;" x="397.181818" xlink:href="#m3da0d4573e" y="238.911285"/>
     <use style="fill:#0000ff;stroke:#0000ff;" x="402.305785" xlink:href="#m3da0d4573e" y="239.389643"/>
     <use style="fill:#0000ff;stroke:#0000ff;" x="407.429752" xlink:href="#m3da0d4573e" y="235.257677"/>
     <use style="fill:#0000ff;stroke:#0000ff;" x="412.553719" xlink:href="#m3da0d4573e" y="240.231433"/>
     <use style="fill:#0000ff;stroke:#0000ff;" x="417.677686" xlink:href="#m3da0d4573e" y="240.097933"/>
     <use style="fill:#0000ff;stroke:#0000ff;" x="422.801653" xlink:href="#m3da0d4573e" y="238.405404"/>
     <use style="fill:#0000ff;stroke:#0000ff;" x="427.92562" xlink:href="#m3da0d4573e" y="239.503684"/>
     <use style="fill:#0000ff;stroke:#0000ff;" x="433.049587" xlink:href="#m3da0d4573e" y="238.448153"/>
     <use style="fill:#0000ff;stroke:#0000ff;" x="438.173554" xlink:href="#m3da0d4573e" y="239.082765"/>
     <use style="fill:#0000ff;stroke:#0000ff;" x="443.297521" xlink:href="#m3da0d4573e" y="239.268906"/>
     <use style="fill:#0000ff;stroke:#0000ff;" x="448.421488" xlink:href="#m3da0d4573e" y="239.985528"/>
     <use style="fill:#0000ff;stroke:#0000ff;" x="453.545455" xlink:href="#m3da0d4573e" y="239.03374"/>
     <use style="fill:#0000ff;stroke:#0000ff;" x="458.669421" xlink:href="#m3da0d4573e" y="241.260085"/>
     <use style="fill:#0000ff;stroke:#0000ff;" x="463.793388" xlink:href="#m3da0d4573e" y="240.661368"/>
     <use style="fill:#0000ff;stroke:#0000ff;" x="468.917355" xlink:href="#m3da0d4573e" y="240.12186"/>
     <use style="fill:#0000ff;stroke:#0000ff;" x="474.041322" xlink:href="#m3da0d4573e" y="241.374121"/>
     <use style="fill:#0000ff;stroke:#0000ff;" x="479.165289" xlink:href="#m3da0d4573e" y="239.906897"/>
     <use style="fill:#0000ff;stroke:#0000ff;" x="484.289256" xlink:href="#m3da0d4573e" y="239.786833"/>
     <use style="fill:#0000ff;stroke:#0000ff;" x="489.413223" xlink:href="#m3da0d4573e" y="240.688344"/>
     <use style="fill:#0000ff;stroke:#0000ff;" x="494.53719" xlink:href="#m3da0d4573e" y="241.39833"/>
     <use style="fill:#0000ff;stroke:#0000ff;" x="499.661157" xlink:href="#m3da0d4573e" y="239.829703"/>
     <use style="fill:#0000ff;stroke:#0000ff;" x="504.785124" xlink:href="#m3da0d4573e" y="237.653027"/>
     <use style="fill:#0000ff;stroke:#0000ff;" x="509.909091" xlink:href="#m3da0d4573e" y="240.397336"/>
     <use style="fill:#0000ff;stroke:#0000ff;" x="515.033058" xlink:href="#m3da0d4573e" y="240.388223"/>
     <use style="fill:#0000ff;stroke:#0000ff;" x="520.157025" xlink:href="#m3da0d4573e" y="239.0673"/>
     <use style="fill:#0000ff;stroke:#0000ff;" x="525.280992" xlink:href="#m3da0d4573e" y="240.324191"/>
     <use style="fill:#0000ff;stroke:#0000ff;" x="530.404959" xlink:href="#m3da0d4573e" y="241.305365"/>
     <use style="fill:#0000ff;stroke:#0000ff;" x="535.528926" xlink:href="#m3da0d4573e" y="239.884112"/>
     <use style="fill:#0000ff;stroke:#0000ff;" x="540.652893" xlink:href="#m3da0d4573e" y="240.360509"/>
     <use style="fill:#0000ff;stroke:#0000ff;" x="545.77686" xlink:href="#m3da0d4573e" y="240.355075"/>
     <use style="fill:#0000ff;stroke:#0000ff;" x="550.900826" xlink:href="#m3da0d4573e" y="241.265801"/>
     <use style="fill:#0000ff;stroke:#0000ff;" x="556.024793" xlink:href="#m3da0d4573e" y="241.617349"/>
     <use style="fill:#0000ff;stroke:#0000ff;" x="561.14876" xlink:href="#m3da0d4573e" y="241.950119"/>
     <use style="fill:#0000ff;stroke:#0000ff;" x="566.272727" xlink:href="#m3da0d4573e" y="240.60253"/>
     <use style="fill:#0000ff;stroke:#0000ff;" x="571.396694" xlink:href="#m3da0d4573e" y="240.097433"/>
     <use style="fill:#0000ff;stroke:#0000ff;" x="576.520661" xlink:href="#m3da0d4573e" y="240.603722"/>
     <use style="fill:#0000ff;stroke:#0000ff;" x="581.644628" xlink:href="#m3da0d4573e" y="241.686211"/>
     <use style="fill:#0000ff;stroke:#0000ff;" x="586.768595" xlink:href="#m3da0d4573e" y="241.647171"/>
     <use style="fill:#0000ff;stroke:#0000ff;" x="591.892562" xlink:href="#m3da0d4573e" y="241.201779"/>
     <use style="fill:#0000ff;stroke:#0000ff;" x="597.016529" xlink:href="#m3da0d4573e" y="241.459321"/>
     <use style="fill:#0000ff;stroke:#0000ff;" x="602.140496" xlink:href="#m3da0d4573e" y="239.998639"/>
     <use style="fill:#0000ff;stroke:#0000ff;" x="607.264463" xlink:href="#m3da0d4573e" y="241.817972"/>
     <use style="fill:#0000ff;stroke:#0000ff;" x="612.38843" xlink:href="#m3da0d4573e" y="241.233579"/>
     <use style="fill:#0000ff;stroke:#0000ff;" x="617.512397" xlink:href="#m3da0d4573e" y="242.116364"/>
     <use style="fill:#0000ff;stroke:#0000ff;" x="622.636364" xlink:href="#m3da0d4573e" y="242.07783"/>
    </g>
   </g>
   <g id="line2d_13">
    <path clip-path="url(#p9f3581330f)" d="M 115.363636 64.510419 
L 120.487603 135.509381 
L 125.61157 157.439579 
L 130.735537 160.070102 
L 135.859504 169.422299 
L 140.983471 164.880601 
L 146.107438 175.760159 
L 151.231405 173.60798 
L 156.355372 176.034799 
L 161.479339 180.297724 
L 166.603306 178.836922 
L 171.727273 177.109684 
L 176.85124 176.460978 
L 181.975207 182.371694 
L 187.099174 183.78031 
L 192.22314 184.165971 
L 197.347107 177.005841 
L 202.471074 185.056215 
L 207.595041 182.282319 
L 212.719008 184.387644 
L 217.842975 187.261618 
L 222.966942 177.424809 
L 228.090909 182.968821 
L 233.214876 175.744682 
L 238.338843 182.075024 
L 243.46281 171.613714 
L 248.586777 181.942408 
L 253.710744 180.895382 
L 258.834711 181.035287 
L 263.958678 182.760171 
L 269.082645 186.234067 
L 274.206612 175.794738 
L 279.330579 165.266908 
L 284.454545 181.980534 
L 289.578512 182.478944 
L 294.702479 182.280378 
L 299.826446 182.929942 
L 304.950413 173.234778 
L 310.07438 179.322237 
L 315.198347 179.782817 
L 320.322314 183.131141 
L 325.446281 181.09252 
L 330.570248 183.034923 
L 335.694215 182.521393 
L 340.818182 183.297516 
L 345.942149 184.182329 
L 351.066116 176.993923 
L 356.190083 176.603867 
L 361.31405 179.456057 
L 366.438017 172.661326 
L 371.561983 179.763921 
L 376.68595 170.751718 
L 381.809917 177.86438 
L 386.933884 167.045446 
L 392.057851 177.807782 
L 397.181818 175.736166 
L 402.305785 159.494319 
L 407.429752 174.348771 
L 412.553719 176.151335 
L 417.677686 175.216199 
L 422.801653 169.918015 
L 427.92562 169.985388 
L 433.049587 169.30704 
L 438.173554 169.188841 
L 443.297521 174.692619 
L 448.421488 168.530002 
L 453.545455 170.214736 
L 458.669421 164.885213 
L 463.793388 167.829679 
L 468.917355 161.913536 
L 474.041322 178.183108 
L 479.165289 160.974016 
L 484.289256 167.23964 
L 489.413223 161.985471 
L 494.53719 161.687117 
L 499.661157 154.542113 
L 504.785124 163.691862 
L 509.909091 165.863154 
L 515.033058 163.756831 
L 520.157025 155.852235 
L 525.280992 172.32097 
L 530.404959 166.869317 
L 535.528926 171.471444 
L 540.652893 165.410963 
L 545.77686 165.321716 
L 550.900826 162.500987 
L 556.024793 156.410188 
L 561.14876 161.819565 
L 566.272727 161.744981 
L 571.396694 158.813438 
L 576.520661 156.685765 
L 581.644628 159.6438 
L 586.768595 163.31358 
L 591.892562 160.768077 
L 597.016529 166.363963 
L 602.140496 151.034937 
L 607.264463 160.065077 
L 612.38843 164.119084 
L 617.512397 165.819345 
L 622.636364 163.822537 
" style="fill:none;stroke:#0000ff;stroke-linecap:square;stroke-width:1.5;"/>
   </g>
   <g id="patch_3">
    <path d="M 90 252 
L 90 34.56 
" style="fill:none;stroke:#000000;stroke-linecap:square;stroke-linejoin:miter;stroke-width:0.8;"/>
   </g>
   <g id="patch_4">
    <path d="M 648 252 
L 648 34.56 
" style="fill:none;stroke:#000000;stroke-linecap:square;stroke-linejoin:miter;stroke-width:0.8;"/>
   </g>
   <g id="patch_5">
    <path d="M 90 252 
L 648 252 
" style="fill:none;stroke:#000000;stroke-linecap:square;stroke-linejoin:miter;stroke-width:0.8;"/>
   </g>
   <g id="patch_6">
    <path d="M 90 34.56 
L 648 34.56 
" style="fill:none;stroke:#000000;stroke-linecap:square;stroke-linejoin:miter;stroke-width:0.8;"/>
   </g>
   <g id="text_14">
    <!-- Training and validation loss -->
    <defs>
     <path d="M -0.296875 72.90625 
L 61.375 72.90625 
L 61.375 64.59375 
L 35.5 64.59375 
L 35.5 0 
L 25.59375 0 
L 25.59375 64.59375 
L -0.296875 64.59375 
z
" id="DejaVuSans-84"/>
     <path d="M 41.109375 46.296875 
Q 39.59375 47.171875 37.8125 47.578125 
Q 36.03125 48 33.890625 48 
Q 26.265625 48 22.1875 43.046875 
Q 18.109375 38.09375 18.109375 28.8125 
L 18.109375 0 
L 9.078125 0 
L 9.078125 54.6875 
L 18.109375 54.6875 
L 18.109375 46.1875 
Q 20.953125 51.171875 25.484375 53.578125 
Q 30.03125 56 36.53125 56 
Q 37.453125 56 38.578125 55.875 
Q 39.703125 55.765625 41.0625 55.515625 
z
" id="DejaVuSans-114"/>
     <path d="M 34.28125 27.484375 
Q 23.390625 27.484375 19.1875 25 
Q 14.984375 22.515625 14.984375 16.5 
Q 14.984375 11.71875 18.140625 8.90625 
Q 21.296875 6.109375 26.703125 6.109375 
Q 34.1875 6.109375 38.703125 11.40625 
Q 43.21875 16.703125 43.21875 25.484375 
L 43.21875 27.484375 
z
M 52.203125 31.203125 
L 52.203125 0 
L 43.21875 0 
L 43.21875 8.296875 
Q 40.140625 3.328125 35.546875 0.953125 
Q 30.953125 -1.421875 24.3125 -1.421875 
Q 15.921875 -1.421875 10.953125 3.296875 
Q 6 8.015625 6 15.921875 
Q 6 25.140625 12.171875 29.828125 
Q 18.359375 34.515625 30.609375 34.515625 
L 43.21875 34.515625 
L 43.21875 35.40625 
Q 43.21875 41.609375 39.140625 45 
Q 35.0625 48.390625 27.6875 48.390625 
Q 23 48.390625 18.546875 47.265625 
Q 14.109375 46.140625 10.015625 43.890625 
L 10.015625 52.203125 
Q 14.9375 54.109375 19.578125 55.046875 
Q 24.21875 56 28.609375 56 
Q 40.484375 56 46.34375 49.84375 
Q 52.203125 43.703125 52.203125 31.203125 
z
" id="DejaVuSans-97"/>
     <path d="M 9.421875 54.6875 
L 18.40625 54.6875 
L 18.40625 0 
L 9.421875 0 
z
M 9.421875 75.984375 
L 18.40625 75.984375 
L 18.40625 64.59375 
L 9.421875 64.59375 
z
" id="DejaVuSans-105"/>
     <path d="M 54.890625 33.015625 
L 54.890625 0 
L 45.90625 0 
L 45.90625 32.71875 
Q 45.90625 40.484375 42.875 44.328125 
Q 39.84375 48.1875 33.796875 48.1875 
Q 26.515625 48.1875 22.3125 43.546875 
Q 18.109375 38.921875 18.109375 30.90625 
L 18.109375 0 
L 9.078125 0 
L 9.078125 54.6875 
L 18.109375 54.6875 
L 18.109375 46.1875 
Q 21.34375 51.125 25.703125 53.5625 
Q 30.078125 56 35.796875 56 
Q 45.21875 56 50.046875 50.171875 
Q 54.890625 44.34375 54.890625 33.015625 
z
" id="DejaVuSans-110"/>
     <path d="M 45.40625 27.984375 
Q 45.40625 37.75 41.375 43.109375 
Q 37.359375 48.484375 30.078125 48.484375 
Q 22.859375 48.484375 18.828125 43.109375 
Q 14.796875 37.75 14.796875 27.984375 
Q 14.796875 18.265625 18.828125 12.890625 
Q 22.859375 7.515625 30.078125 7.515625 
Q 37.359375 7.515625 41.375 12.890625 
Q 45.40625 18.265625 45.40625 27.984375 
z
M 54.390625 6.78125 
Q 54.390625 -7.171875 48.1875 -13.984375 
Q 42 -20.796875 29.203125 -20.796875 
Q 24.46875 -20.796875 20.265625 -20.09375 
Q 16.0625 -19.390625 12.109375 -17.921875 
L 12.109375 -9.1875 
Q 16.0625 -11.328125 19.921875 -12.34375 
Q 23.78125 -13.375 27.78125 -13.375 
Q 36.625 -13.375 41.015625 -8.765625 
Q 45.40625 -4.15625 45.40625 5.171875 
L 45.40625 9.625 
Q 42.625 4.78125 38.28125 2.390625 
Q 33.9375 0 27.875 0 
Q 17.828125 0 11.671875 7.65625 
Q 5.515625 15.328125 5.515625 27.984375 
Q 5.515625 40.671875 11.671875 48.328125 
Q 17.828125 56 27.875 56 
Q 33.9375 56 38.28125 53.609375 
Q 42.625 51.21875 45.40625 46.390625 
L 45.40625 54.6875 
L 54.390625 54.6875 
z
" id="DejaVuSans-103"/>
     <path id="DejaVuSans-32"/>
     <path d="M 45.40625 46.390625 
L 45.40625 75.984375 
L 54.390625 75.984375 
L 54.390625 0 
L 45.40625 0 
L 45.40625 8.203125 
Q 42.578125 3.328125 38.25 0.953125 
Q 33.9375 -1.421875 27.875 -1.421875 
Q 17.96875 -1.421875 11.734375 6.484375 
Q 5.515625 14.40625 5.515625 27.296875 
Q 5.515625 40.1875 11.734375 48.09375 
Q 17.96875 56 27.875 56 
Q 33.9375 56 38.25 53.625 
Q 42.578125 51.265625 45.40625 46.390625 
z
M 14.796875 27.296875 
Q 14.796875 17.390625 18.875 11.75 
Q 22.953125 6.109375 30.078125 6.109375 
Q 37.203125 6.109375 41.296875 11.75 
Q 45.40625 17.390625 45.40625 27.296875 
Q 45.40625 37.203125 41.296875 42.84375 
Q 37.203125 48.484375 30.078125 48.484375 
Q 22.953125 48.484375 18.875 42.84375 
Q 14.796875 37.203125 14.796875 27.296875 
z
" id="DejaVuSans-100"/>
     <path d="M 2.984375 54.6875 
L 12.5 54.6875 
L 29.59375 8.796875 
L 46.6875 54.6875 
L 56.203125 54.6875 
L 35.6875 0 
L 23.484375 0 
z
" id="DejaVuSans-118"/>
     <path d="M 9.421875 75.984375 
L 18.40625 75.984375 
L 18.40625 0 
L 9.421875 0 
z
" id="DejaVuSans-108"/>
     <path d="M 18.3125 70.21875 
L 18.3125 54.6875 
L 36.8125 54.6875 
L 36.8125 47.703125 
L 18.3125 47.703125 
L 18.3125 18.015625 
Q 18.3125 11.328125 20.140625 9.421875 
Q 21.96875 7.515625 27.59375 7.515625 
L 36.8125 7.515625 
L 36.8125 0 
L 27.59375 0 
Q 17.1875 0 13.234375 3.875 
Q 9.28125 7.765625 9.28125 18.015625 
L 9.28125 47.703125 
L 2.6875 47.703125 
L 2.6875 54.6875 
L 9.28125 54.6875 
L 9.28125 70.21875 
z
" id="DejaVuSans-116"/>
    </defs>
    <g transform="translate(286.318125 28.56)scale(0.12 -0.12)">
     <use xlink:href="#DejaVuSans-84"/>
     <use x="60.865234" xlink:href="#DejaVuSans-114"/>
     <use x="101.978516" xlink:href="#DejaVuSans-97"/>
     <use x="163.257812" xlink:href="#DejaVuSans-105"/>
     <use x="191.041016" xlink:href="#DejaVuSans-110"/>
     <use x="254.419922" xlink:href="#DejaVuSans-105"/>
     <use x="282.203125" xlink:href="#DejaVuSans-110"/>
     <use x="345.582031" xlink:href="#DejaVuSans-103"/>
     <use x="409.058594" xlink:href="#DejaVuSans-32"/>
     <use x="440.845703" xlink:href="#DejaVuSans-97"/>
     <use x="502.125" xlink:href="#DejaVuSans-110"/>
     <use x="565.503906" xlink:href="#DejaVuSans-100"/>
     <use x="628.980469" xlink:href="#DejaVuSans-32"/>
     <use x="660.767578" xlink:href="#DejaVuSans-118"/>
     <use x="719.947266" xlink:href="#DejaVuSans-97"/>
     <use x="781.226562" xlink:href="#DejaVuSans-108"/>
     <use x="809.009766" xlink:href="#DejaVuSans-105"/>
     <use x="836.792969" xlink:href="#DejaVuSans-100"/>
     <use x="900.269531" xlink:href="#DejaVuSans-97"/>
     <use x="961.548828" xlink:href="#DejaVuSans-116"/>
     <use x="1000.757812" xlink:href="#DejaVuSans-105"/>
     <use x="1028.541016" xlink:href="#DejaVuSans-111"/>
     <use x="1089.722656" xlink:href="#DejaVuSans-110"/>
     <use x="1153.101562" xlink:href="#DejaVuSans-32"/>
     <use x="1184.888672" xlink:href="#DejaVuSans-108"/>
     <use x="1212.671875" xlink:href="#DejaVuSans-111"/>
     <use x="1273.853516" xlink:href="#DejaVuSans-115"/>
     <use x="1325.953125" xlink:href="#DejaVuSans-115"/>
    </g>
   </g>
   <g id="legend_1">
    <g id="patch_7">
     <path d="M 536.360937 71.91625 
L 641 71.91625 
Q 643 71.91625 643 69.91625 
L 643 41.56 
Q 643 39.56 641 39.56 
L 536.360937 39.56 
Q 534.360937 39.56 534.360937 41.56 
L 534.360937 69.91625 
Q 534.360937 71.91625 536.360937 71.91625 
z
" style="fill:#ffffff;opacity:0.8;stroke:#cccccc;stroke-linejoin:miter;"/>
    </g>
    <g id="line2d_14"/>
    <g id="line2d_15">
     <g>
      <use style="fill:#0000ff;stroke:#0000ff;" x="548.360937" xlink:href="#m3da0d4573e" y="47.658437"/>
     </g>
    </g>
    <g id="text_15">
     <!-- Training loss -->
     <g transform="translate(566.360937 51.158437)scale(0.1 -0.1)">
      <use xlink:href="#DejaVuSans-84"/>
      <use x="60.865234" xlink:href="#DejaVuSans-114"/>
      <use x="101.978516" xlink:href="#DejaVuSans-97"/>
      <use x="163.257812" xlink:href="#DejaVuSans-105"/>
      <use x="191.041016" xlink:href="#DejaVuSans-110"/>
      <use x="254.419922" xlink:href="#DejaVuSans-105"/>
      <use x="282.203125" xlink:href="#DejaVuSans-110"/>
      <use x="345.582031" xlink:href="#DejaVuSans-103"/>
      <use x="409.058594" xlink:href="#DejaVuSans-32"/>
      <use x="440.845703" xlink:href="#DejaVuSans-108"/>
      <use x="468.628906" xlink:href="#DejaVuSans-111"/>
      <use x="529.810547" xlink:href="#DejaVuSans-115"/>
      <use x="581.910156" xlink:href="#DejaVuSans-115"/>
     </g>
    </g>
    <g id="line2d_16">
     <path d="M 538.360937 62.336562 
L 558.360937 62.336562 
" style="fill:none;stroke:#0000ff;stroke-linecap:square;stroke-width:1.5;"/>
    </g>
    <g id="line2d_17"/>
    <g id="text_16">
     <!-- Validation loss -->
     <defs>
      <path d="M 28.609375 0 
L 0.78125 72.90625 
L 11.078125 72.90625 
L 34.1875 11.53125 
L 57.328125 72.90625 
L 67.578125 72.90625 
L 39.796875 0 
z
" id="DejaVuSans-86"/>
     </defs>
     <g transform="translate(566.360937 65.836562)scale(0.1 -0.1)">
      <use xlink:href="#DejaVuSans-86"/>
      <use x="68.298828" xlink:href="#DejaVuSans-97"/>
      <use x="129.578125" xlink:href="#DejaVuSans-108"/>
      <use x="157.361328" xlink:href="#DejaVuSans-105"/>
      <use x="185.144531" xlink:href="#DejaVuSans-100"/>
      <use x="248.621094" xlink:href="#DejaVuSans-97"/>
      <use x="309.900391" xlink:href="#DejaVuSans-116"/>
      <use x="349.109375" xlink:href="#DejaVuSans-105"/>
      <use x="376.892578" xlink:href="#DejaVuSans-111"/>
      <use x="438.074219" xlink:href="#DejaVuSans-110"/>
      <use x="501.453125" xlink:href="#DejaVuSans-32"/>
      <use x="533.240234" xlink:href="#DejaVuSans-108"/>
      <use x="561.023438" xlink:href="#DejaVuSans-111"/>
      <use x="622.205078" xlink:href="#DejaVuSans-115"/>
      <use x="674.304688" xlink:href="#DejaVuSans-115"/>
     </g>
    </g>
   </g>
  </g>
 </g>
 <defs>
  <clipPath id="p9f3581330f">
   <rect height="217.44" width="558" x="90" y="34.56"/>
  </clipPath>
 </defs>
</svg>
